solid OpenSCAD_Model
  facet normal -1 0 0
    outer loop
      vertex 5.5 5.3 -5
      vertex 5.5 9.25 15
      vertex 5.5 9.25 -5
    endloop
  endfacet
  facet normal -1 -0 0
    outer loop
      vertex 5.5 9.25 15
      vertex 5.5 5.3 -5
      vertex 5.5 5.3 15
    endloop
  endfacet
  facet normal 0 -1 0
    outer loop
      vertex -7.5 5.3 -5
      vertex -5.5 5.3 15
      vertex -7.5 5.3 15
    endloop
  endfacet
  facet normal 0 -1 -0
    outer loop
      vertex -5.5 5.3 15
      vertex -7.5 5.3 -5
      vertex -5.5 5.3 -5
    endloop
  endfacet
  facet normal 0 -1 0
    outer loop
      vertex 5.5 5.3 -5
      vertex 7.5 5.3 15
      vertex 5.5 5.3 15
    endloop
  endfacet
  facet normal 0 -1 -0
    outer loop
      vertex 7.5 5.3 15
      vertex 5.5 5.3 -5
      vertex 7.5 5.3 -5
    endloop
  endfacet
  facet normal 1 -0 0
    outer loop
      vertex -5.5 5.3 15
      vertex -5.5 9.25 -5
      vertex -5.5 9.25 15
    endloop
  endfacet
  facet normal 1 0 0
    outer loop
      vertex -5.5 9.25 -5
      vertex -5.5 5.3 15
      vertex -5.5 5.3 -5
    endloop
  endfacet
  facet normal -0 0 1
    outer loop
      vertex -7.5 -0.25 -5
      vertex -6 -0.75 -5
      vertex -5.5 -0.25 -5
    endloop
  endfacet
  facet normal 0 0 1
    outer loop
      vertex -6 -0.75 -5
      vertex -7.5 -0.25 -5
      vertex -7.5 -0.75 -5
    endloop
  endfacet
  facet normal -0 0 1
    outer loop
      vertex -7.5 5.3 -5
      vertex -5.5 3.7 -5
      vertex -5.5 5.3 -5
    endloop
  endfacet
  facet normal 0 0 1
    outer loop
      vertex -5.5 3.7 -5
      vertex -7.5 5.3 -5
      vertex -7.5 3.7 -5
    endloop
  endfacet
  facet normal 0 0 1
    outer loop
      vertex -5.5 5.3 -5
      vertex 5.5 5.3 -5
      vertex 5.5 9.25 -5
    endloop
  endfacet
  facet normal 0 0 1
    outer loop
      vertex 5.5 5.3 -5
      vertex -5.5 5.3 -5
      vertex 5.5 3.7 -5
    endloop
  endfacet
  facet normal 0 0 1
    outer loop
      vertex 5.5 3.7 -5
      vertex -5.5 3.7 -5
      vertex 5.5 -0.25 -5
    endloop
  endfacet
  facet normal 0 0 1
    outer loop
      vertex 5.5 -0.25 -5
      vertex -5.5 -0.25 -5
      vertex 3.5 -6.25 -5
    endloop
  endfacet
  facet normal 0 0 1
    outer loop
      vertex -5.5 5.3 -5
      vertex 5.5 9.25 -5
      vertex -5.5 9.25 -5
    endloop
  endfacet
  facet normal 0 0 1
    outer loop
      vertex 5.5 3.7 -5
      vertex -5.5 5.3 -5
      vertex -5.5 3.7 -5
    endloop
  endfacet
  facet normal 0 0 1
    outer loop
      vertex 5.5 -0.25 -5
      vertex -5.5 3.7 -5
      vertex -5.5 -0.25 -5
    endloop
  endfacet
  facet normal 0 0 1
    outer loop
      vertex 3.5 -6.25 -5
      vertex -5.5 -0.25 -5
      vertex -3.5 -6.25 -5
    endloop
  endfacet
  facet normal -0 0 1
    outer loop
      vertex -6 -0.75 -5
      vertex -3.5 -6.25 -5
      vertex -5.5 -0.25 -5
    endloop
  endfacet
  facet normal 0 0 1
    outer loop
      vertex -6 -9.25 -5
      vertex -3.5 -6.25 -5
      vertex -6 -0.75 -5
    endloop
  endfacet
  facet normal 0 0 1
    outer loop
      vertex -3.5 -6.25 -5
      vertex -6 -9.25 -5
      vertex -3.5 -9.25 -5
    endloop
  endfacet
  facet normal -0 0 1
    outer loop
      vertex 5.5 5.3 -5
      vertex 7.5 3.7 -5
      vertex 7.5 5.3 -5
    endloop
  endfacet
  facet normal 0 0 1
    outer loop
      vertex 7.5 3.7 -5
      vertex 5.5 5.3 -5
      vertex 5.5 3.7 -5
    endloop
  endfacet
  facet normal 0 0 1
    outer loop
      vertex 7.5 -0.25 -5
      vertex 6 -0.75 -5
      vertex 7.5 -0.75 -5
    endloop
  endfacet
  facet normal -0 0 1
    outer loop
      vertex 5.5 -0.25 -5
      vertex 6 -0.75 -5
      vertex 7.5 -0.25 -5
    endloop
  endfacet
  facet normal 0 0 1
    outer loop
      vertex 3.5 -6.25 -5
      vertex 6 -0.75 -5
      vertex 5.5 -0.25 -5
    endloop
  endfacet
  facet normal 0 0 1
    outer loop
      vertex 6 -0.75 -5
      vertex 3.5 -6.25 -5
      vertex 6 -9.25 -5
    endloop
  endfacet
  facet normal 0 0 1
    outer loop
      vertex 6 -9.25 -5
      vertex 3.5 -6.25 -5
      vertex 3.5 -9.25 -5
    endloop
  endfacet
  facet normal 0 0 1
    outer loop
      vertex -5.5 9.25 15
      vertex -7.5 5.3 15
      vertex -5.5 5.3 15
    endloop
  endfacet
  facet normal 0 0 1
    outer loop
      vertex -8.5 9.25 15
      vertex -7.5 3.7 15
      vertex -7.5 5.3 15
    endloop
  endfacet
  facet normal 0 0 1
    outer loop
      vertex -7.5 3.7 15
      vertex -8.5 9.25 15
      vertex -7.5 -0.25 15
    endloop
  endfacet
  facet normal 0 0 1
    outer loop
      vertex -8.5 -9.25 15
      vertex -7.5 -0.25 15
      vertex -8.5 9.25 15
    endloop
  endfacet
  facet normal -0 0 1
    outer loop
      vertex -8.5 9.25 15
      vertex -7.5 5.3 15
      vertex -5.5 9.25 15
    endloop
  endfacet
  facet normal -0 0 1
    outer loop
      vertex -7.5 3.7 15
      vertex -5.5 -0.25 15
      vertex -5.5 3.7 15
    endloop
  endfacet
  facet normal 0 0 1
    outer loop
      vertex -5.5 -0.25 15
      vertex -7.5 3.7 15
      vertex -7.5 -0.25 15
    endloop
  endfacet
  facet normal -0 0 1
    outer loop
      vertex -7.5 -0.75 15
      vertex -6 -9.25 15
      vertex -6 -0.75 15
    endloop
  endfacet
  facet normal 0 0 1
    outer loop
      vertex -7.5 -0.75 15
      vertex -8.5 -9.25 15
      vertex -6 -9.25 15
    endloop
  endfacet
  facet normal 0 0 1
    outer loop
      vertex -7.5 -0.25 15
      vertex -8.5 -9.25 15
      vertex -7.5 -0.75 15
    endloop
  endfacet
  facet normal -0 0 1
    outer loop
      vertex 5.5 3.7 15
      vertex 7.5 -0.25 15
      vertex 7.5 3.7 15
    endloop
  endfacet
  facet normal 0 0 1
    outer loop
      vertex 7.5 -0.25 15
      vertex 5.5 3.7 15
      vertex 5.5 -0.25 15
    endloop
  endfacet
  facet normal 0 0 1
    outer loop
      vertex 7.5 3.7 15
      vertex 8.5 9.25 15
      vertex 7.5 5.3 15
    endloop
  endfacet
  facet normal -0 0 1
    outer loop
      vertex 5.5 9.25 15
      vertex 7.5 5.3 15
      vertex 8.5 9.25 15
    endloop
  endfacet
  facet normal 0 0 1
    outer loop
      vertex 7.5 5.3 15
      vertex 5.5 9.25 15
      vertex 5.5 5.3 15
    endloop
  endfacet
  facet normal 0 0 1
    outer loop
      vertex 7.5 -0.25 15
      vertex 8.5 9.25 15
      vertex 7.5 3.7 15
    endloop
  endfacet
  facet normal 0 0 1
    outer loop
      vertex 8.5 9.25 15
      vertex 7.5 -0.25 15
      vertex 8.5 -9.25 15
    endloop
  endfacet
  facet normal -0 0 1
    outer loop
      vertex 7.5 -0.75 15
      vertex 8.5 -9.25 15
      vertex 7.5 -0.25 15
    endloop
  endfacet
  facet normal 0 0 1
    outer loop
      vertex 6 -9.25 15
      vertex 7.5 -0.75 15
      vertex 6 -0.75 15
    endloop
  endfacet
  facet normal 0 0 1
    outer loop
      vertex 7.5 -0.75 15
      vertex 6 -9.25 15
      vertex 8.5 -9.25 15
    endloop
  endfacet
  facet normal -1 0 0
    outer loop
      vertex 7.5 3.7 -5
      vertex 7.5 5.3 15
      vertex 7.5 5.3 -5
    endloop
  endfacet
  facet normal -1 -0 0
    outer loop
      vertex 7.5 5.3 15
      vertex 7.5 3.7 -5
      vertex 7.5 3.7 15
    endloop
  endfacet
  facet normal 0 1 -0
    outer loop
      vertex -5.5 3.7 -5
      vertex -7.5 3.7 15
      vertex -5.5 3.7 15
    endloop
  endfacet
  facet normal 0 1 0
    outer loop
      vertex -7.5 3.7 15
      vertex -5.5 3.7 -5
      vertex -7.5 3.7 -5
    endloop
  endfacet
  facet normal 0 1 -0
    outer loop
      vertex 7.5 3.7 -5
      vertex 5.5 3.7 15
      vertex 7.5 3.7 15
    endloop
  endfacet
  facet normal 0 1 0
    outer loop
      vertex 5.5 3.7 15
      vertex 7.5 3.7 -5
      vertex 5.5 3.7 -5
    endloop
  endfacet
  facet normal 1 -0 0
    outer loop
      vertex -7.5 3.7 15
      vertex -7.5 5.3 -5
      vertex -7.5 5.3 15
    endloop
  endfacet
  facet normal 1 0 0
    outer loop
      vertex -7.5 5.3 -5
      vertex -7.5 3.7 15
      vertex -7.5 3.7 -5
    endloop
  endfacet
  facet normal -1 0 0
    outer loop
      vertex 5.5 -0.25 -5
      vertex 5.5 3.7 15
      vertex 5.5 3.7 -5
    endloop
  endfacet
  facet normal -1 -0 0
    outer loop
      vertex 5.5 3.7 15
      vertex 5.5 -0.25 -5
      vertex 5.5 -0.25 15
    endloop
  endfacet
  facet normal 1 -0 0
    outer loop
      vertex -5.5 -0.25 15
      vertex -5.5 3.7 -5
      vertex -5.5 3.7 15
    endloop
  endfacet
  facet normal 1 0 0
    outer loop
      vertex -5.5 3.7 -5
      vertex -5.5 -0.25 15
      vertex -5.5 -0.25 -5
    endloop
  endfacet
  facet normal 0 -1 0
    outer loop
      vertex -7.5 -0.25 -5
      vertex -5.5 -0.25 15
      vertex -7.5 -0.25 15
    endloop
  endfacet
  facet normal 0 -1 -0
    outer loop
      vertex -5.5 -0.25 15
      vertex -7.5 -0.25 -5
      vertex -5.5 -0.25 -5
    endloop
  endfacet
  facet normal 0 -1 0
    outer loop
      vertex 5.5 -0.25 -5
      vertex 7.5 -0.25 15
      vertex 5.5 -0.25 15
    endloop
  endfacet
  facet normal 0 -1 -0
    outer loop
      vertex 7.5 -0.25 15
      vertex 5.5 -0.25 -5
      vertex 7.5 -0.25 -5
    endloop
  endfacet
  facet normal -1 0 0
    outer loop
      vertex 7.5 -0.75 -5
      vertex 7.5 -0.25 15
      vertex 7.5 -0.25 -5
    endloop
  endfacet
  facet normal -1 -0 0
    outer loop
      vertex 7.5 -0.25 15
      vertex 7.5 -0.75 -5
      vertex 7.5 -0.75 15
    endloop
  endfacet
  facet normal 0 1 -0
    outer loop
      vertex -6 -0.75 -5
      vertex -7.5 -0.75 15
      vertex -6 -0.75 15
    endloop
  endfacet
  facet normal 0 1 0
    outer loop
      vertex -7.5 -0.75 15
      vertex -6 -0.75 -5
      vertex -7.5 -0.75 -5
    endloop
  endfacet
  facet normal 0 1 -0
    outer loop
      vertex 7.5 -0.75 -5
      vertex 6 -0.75 15
      vertex 7.5 -0.75 15
    endloop
  endfacet
  facet normal 0 1 0
    outer loop
      vertex 6 -0.75 15
      vertex 7.5 -0.75 -5
      vertex 6 -0.75 -5
    endloop
  endfacet
  facet normal 1 -0 0
    outer loop
      vertex -7.5 -0.75 15
      vertex -7.5 -0.25 -5
      vertex -7.5 -0.25 15
    endloop
  endfacet
  facet normal 1 0 0
    outer loop
      vertex -7.5 -0.25 -5
      vertex -7.5 -0.75 15
      vertex -7.5 -0.75 -5
    endloop
  endfacet
  facet normal -1 0 0
    outer loop
      vertex 6 -9.25 -5
      vertex 6 -0.75 15
      vertex 6 -0.75 -5
    endloop
  endfacet
  facet normal -1 -0 0
    outer loop
      vertex 6 -0.75 15
      vertex 6 -9.25 -5
      vertex 6 -9.25 15
    endloop
  endfacet
  facet normal 0 -1 0
    outer loop
      vertex 6 -9.25 -5
      vertex 8.5 -9.25 15
      vertex 6 -9.25 15
    endloop
  endfacet
  facet normal 0 -1 0
    outer loop
      vertex 6 -9.25 -5
      vertex 8.5 -9.25 -8
      vertex 8.5 -9.25 15
    endloop
  endfacet
  facet normal 0 -1 0
    outer loop
      vertex 8.5 -9.25 -8
      vertex 6 -9.25 -5
      vertex 3.5 -9.25 -8
    endloop
  endfacet
  facet normal 0 -1 0
    outer loop
      vertex 3.5 -9.25 -5
      vertex 3.5 -9.25 -8
      vertex 6 -9.25 -5
    endloop
  endfacet
  facet normal 0 -1 0
    outer loop
      vertex -8.5 -9.25 15
      vertex -6 -9.25 -5
      vertex -6 -9.25 15
    endloop
  endfacet
  facet normal 0 -1 0
    outer loop
      vertex -8.5 -9.25 -8
      vertex -6 -9.25 -5
      vertex -8.5 -9.25 15
    endloop
  endfacet
  facet normal 0 -1 0
    outer loop
      vertex -3.5 -9.25 -8
      vertex -6 -9.25 -5
      vertex -8.5 -9.25 -8
    endloop
  endfacet
  facet normal 0 -1 0
    outer loop
      vertex -6 -9.25 -5
      vertex -3.5 -9.25 -8
      vertex -3.5 -9.25 -5
    endloop
  endfacet
  facet normal 1 -0 0
    outer loop
      vertex -6 -9.25 15
      vertex -6 -0.75 -5
      vertex -6 -0.75 15
    endloop
  endfacet
  facet normal 1 0 0
    outer loop
      vertex -6 -0.75 -5
      vertex -6 -9.25 15
      vertex -6 -9.25 -5
    endloop
  endfacet
  facet normal 1 -0 0
    outer loop
      vertex 8.5 -9.25 15
      vertex 8.5 9.25 -8
      vertex 8.5 9.25 15
    endloop
  endfacet
  facet normal 1 0 0
    outer loop
      vertex 8.5 9.25 -8
      vertex 8.5 -9.25 15
      vertex 8.5 -9.25 -8
    endloop
  endfacet
  facet normal 0 1 0
    outer loop
      vertex 8.5 9.25 15
      vertex 5.5 9.25 -5
      vertex 5.5 9.25 15
    endloop
  endfacet
  facet normal 0 1 0
    outer loop
      vertex 5.5 9.25 -5
      vertex 8.5 9.25 -8
      vertex -5.5 9.25 -5
    endloop
  endfacet
  facet normal 0 1 -0
    outer loop
      vertex 8.5 9.25 -8
      vertex 5.5 9.25 -5
      vertex 8.5 9.25 15
    endloop
  endfacet
  facet normal 0 1 -0
    outer loop
      vertex -5.5 9.25 -5
      vertex -8.5 9.25 15
      vertex -5.5 9.25 15
    endloop
  endfacet
  facet normal 0 1 0
    outer loop
      vertex -5.5 9.25 -5
      vertex -8.5 9.25 -8
      vertex -8.5 9.25 15
    endloop
  endfacet
  facet normal 0 1 0
    outer loop
      vertex -8.5 9.25 -8
      vertex -5.5 9.25 -5
      vertex 8.5 9.25 -8
    endloop
  endfacet
  facet normal -1 0 0
    outer loop
      vertex -8.5 -9.25 -8
      vertex -8.5 9.25 15
      vertex -8.5 9.25 -8
    endloop
  endfacet
  facet normal -1 -0 0
    outer loop
      vertex -8.5 9.25 15
      vertex -8.5 -9.25 -8
      vertex -8.5 -9.25 15
    endloop
  endfacet
  facet normal 0 0 -1
    outer loop
      vertex -3.5 -9.25 -8
      vertex -8.5 -9.25 -8
      vertex -3.5 -6.25 -8
    endloop
  endfacet
  facet normal 0 0 -1
    outer loop
      vertex 3.5 -6.25 -8
      vertex 8.5 -9.25 -8
      vertex 3.5 -9.25 -8
    endloop
  endfacet
  facet normal 0 0 -1
    outer loop
      vertex 8.5 -9.25 -8
      vertex 3.5 -6.25 -8
      vertex 8.5 9.25 -8
    endloop
  endfacet
  facet normal 0 0 -1
    outer loop
      vertex -3.5 -6.25 -8
      vertex 8.5 9.25 -8
      vertex 3.5 -6.25 -8
    endloop
  endfacet
  facet normal 0 0 -1
    outer loop
      vertex -8.5 9.25 -8
      vertex -3.5 -6.25 -8
      vertex -8.5 -9.25 -8
    endloop
  endfacet
  facet normal 0 0 -1
    outer loop
      vertex -3.5 -6.25 -8
      vertex -8.5 9.25 -8
      vertex 8.5 9.25 -8
    endloop
  endfacet
  facet normal -1 0 0
    outer loop
      vertex 3.5 -9.25 -8
      vertex 3.5 -6.25 -5
      vertex 3.5 -6.25 -8
    endloop
  endfacet
  facet normal -1 -0 0
    outer loop
      vertex 3.5 -6.25 -5
      vertex 3.5 -9.25 -8
      vertex 3.5 -9.25 -5
    endloop
  endfacet
  facet normal 0 -1 0
    outer loop
      vertex -3.5 -6.25 -8
      vertex 3.5 -6.25 -5
      vertex -3.5 -6.25 -5
    endloop
  endfacet
  facet normal 0 -1 -0
    outer loop
      vertex 3.5 -6.25 -5
      vertex -3.5 -6.25 -8
      vertex 3.5 -6.25 -8
    endloop
  endfacet
  facet normal 1 -0 0
    outer loop
      vertex -3.5 -9.25 -5
      vertex -3.5 -6.25 -8
      vertex -3.5 -6.25 -5
    endloop
  endfacet
  facet normal 1 0 0
    outer loop
      vertex -3.5 -6.25 -8
      vertex -3.5 -9.25 -5
      vertex -3.5 -9.25 -8
    endloop
  endfacet
endsolid OpenSCAD_Model
