solid OpenSCAD_Model
  facet normal 1 0 0
    outer loop
      vertex 16.5 9.75 1.5
      vertex 16.5 13.75 14
      vertex 16.5 9.75 14
    endloop
  endfacet
  facet normal 1 0 0
    outer loop
      vertex 16.5 13.75 14
      vertex 16.5 9.75 1.5
      vertex 16.5 13.75 -1.5
    endloop
  endfacet
  facet normal 1 0 0
    outer loop
      vertex 16.5 -8.75 -1.5
      vertex 16.5 9.75 1.5
      vertex 16.5 -8.75 1.5
    endloop
  endfacet
  facet normal 1 0 0
    outer loop
      vertex 16.5 9.75 1.5
      vertex 16.5 -8.75 -1.5
      vertex 16.5 13.75 -1.5
    endloop
  endfacet
  facet normal -0 0 1
    outer loop
      vertex 11.5 13.75 14
      vertex 16.5 9.75 14
      vertex 16.5 13.75 14
    endloop
  endfacet
  facet normal 0 0 1
    outer loop
      vertex 16.5 9.75 14
      vertex 11.5 13.75 14
      vertex 11.5 9.75 14
    endloop
  endfacet
  facet normal -0 0 1
    outer loop
      vertex -11.6829 -10.4904 1.5
      vertex -11.5 -13.6677 1.5
      vertex -10.9592 -10.4143 1.5
    endloop
  endfacet
  facet normal 0 0 1
    outer loop
      vertex -11.6829 -10.4904 1.5
      vertex -12.0226 -13.7226 1.5
      vertex -11.5 -13.6677 1.5
    endloop
  endfacet
  facet normal 0 0 1
    outer loop
      vertex -12.375 -10.2655 1.5
      vertex -12.0226 -13.7226 1.5
      vertex -11.6829 -10.4904 1.5
    endloop
  endfacet
  facet normal 0 0 1
    outer loop
      vertex -14 -13.0801 1.5
      vertex -12.375 -10.2655 1.5
      vertex -12.9158 -9.77862 1.5
    endloop
  endfacet
  facet normal 0 0 1
    outer loop
      vertex -15.5451 -11.6889 1.5
      vertex -12.9158 -9.77862 1.5
      vertex -13.2118 -9.11384 1.5
    endloop
  endfacet
  facet normal 0 0 1
    outer loop
      vertex -12.375 -10.2655 1.5
      vertex -14 -13.0801 1.5
      vertex -12.0226 -13.7226 1.5
    endloop
  endfacet
  facet normal 0 0 1
    outer loop
      vertex -11.5 9.75 1.5
      vertex 11.5 9.75 1.5
      vertex 11.5 13.75 1.5
    endloop
  endfacet
  facet normal 0 0 1
    outer loop
      vertex 11.5 9.75 1.5
      vertex 10.625 -7.23446 1.5
      vertex 11.3171 -7.00959 1.5
    endloop
  endfacet
  facet normal 0 -0 1
    outer loop
      vertex 10.0842 -7.72138 1.5
      vertex 11.5 9.75 1.5
      vertex -11.5 9.75 1.5
    endloop
  endfacet
  facet normal 0 0 1
    outer loop
      vertex 11.5 9.75 1.5
      vertex 10.0842 -7.72138 1.5
      vertex 10.625 -7.23446 1.5
    endloop
  endfacet
  facet normal 0 0 1
    outer loop
      vertex 9.78824 -8.38615 1.5
      vertex -9.75 -8.75 1.5
      vertex 9.78824 -9.11384 1.5
    endloop
  endfacet
  facet normal -0 -0 1
    outer loop
      vertex -10.329 -7.4495 1.5
      vertex 10.0842 -7.72138 1.5
      vertex -11.5 9.75 1.5
    endloop
  endfacet
  facet normal 0 0 1
    outer loop
      vertex 9.78824 -8.38615 1.5
      vertex -9.90129 -8.03821 1.5
      vertex -9.75 -8.75 1.5
    endloop
  endfacet
  facet normal 0 0 1
    outer loop
      vertex 10.0842 -7.72138 1.5
      vertex -9.90129 -8.03821 1.5
      vertex 9.78824 -8.38615 1.5
    endloop
  endfacet
  facet normal 0 -0 1
    outer loop
      vertex -9.90129 -8.03821 1.5
      vertex 10.0842 -7.72138 1.5
      vertex -10.329 -7.4495 1.5
    endloop
  endfacet
  facet normal 0 0 1
    outer loop
      vertex -11.5 9.75 1.5
      vertex 11.5 13.75 1.5
      vertex -11.5 13.75 1.5
    endloop
  endfacet
  facet normal 0 0 1
    outer loop
      vertex -10.329 -7.4495 1.5
      vertex -11.5 9.75 1.5
      vertex -10.9592 -7.08565 1.5
    endloop
  endfacet
  facet normal 0 0 1
    outer loop
      vertex -11.5 9.75 1.5
      vertex -11.6829 -7.00959 1.5
      vertex -10.9592 -7.08565 1.5
    endloop
  endfacet
  facet normal -0 0 1
    outer loop
      vertex -16.5 9.75 1.5
      vertex -11.6829 -7.00959 1.5
      vertex -11.5 9.75 1.5
    endloop
  endfacet
  facet normal 0 0 1
    outer loop
      vertex -11.6829 -7.00959 1.5
      vertex -16.5 9.75 1.5
      vertex -12.375 -7.23446 1.5
    endloop
  endfacet
  facet normal 0 0 1
    outer loop
      vertex -16.5 -8.75 1.5
      vertex -12.375 -7.23446 1.5
      vertex -16.5 9.75 1.5
    endloop
  endfacet
  facet normal -0 0 1
    outer loop
      vertex -16.3907 -8.75 1.5
      vertex -13.2118 -9.11384 1.5
      vertex -13.2118 -8.38615 1.5
    endloop
  endfacet
  facet normal 0 -0 1
    outer loop
      vertex -16.3907 -8.75 1.5
      vertex -12.375 -7.23446 1.5
      vertex -16.5 -8.75 1.5
    endloop
  endfacet
  facet normal 0 0 1
    outer loop
      vertex -13.2118 -9.11384 1.5
      vertex -16.3907 -8.75 1.5
      vertex -16.3907 -9.78956 1.5
    endloop
  endfacet
  facet normal 0 0 1
    outer loop
      vertex -12.9158 -9.77862 1.5
      vertex -15.5451 -11.6889 1.5
      vertex -14 -13.0801 1.5
    endloop
  endfacet
  facet normal 0 0 1
    outer loop
      vertex -12.9158 -7.72138 1.5
      vertex -16.3907 -8.75 1.5
      vertex -13.2118 -8.38615 1.5
    endloop
  endfacet
  facet normal 0 0 1
    outer loop
      vertex -12.375 -7.23446 1.5
      vertex -16.3907 -8.75 1.5
      vertex -12.9158 -7.72138 1.5
    endloop
  endfacet
  facet normal -0 0 1
    outer loop
      vertex 12.671 -7.4495 1.5
      vertex 16.5 -8.75 1.5
      vertex 16.5 9.75 1.5
    endloop
  endfacet
  facet normal 0 -0 1
    outer loop
      vertex 13.25 -8.75 1.5
      vertex 16.5 -8.75 1.5
      vertex 13.0987 -8.03821 1.5
    endloop
  endfacet
  facet normal 0 0 1
    outer loop
      vertex 16.5 -8.75 1.5
      vertex 13.25 -8.75 1.5
      vertex 16.0677 -10.7837 1.5
    endloop
  endfacet
  facet normal -0 0 1
    outer loop
      vertex 13.0987 -9.46179 1.5
      vertex 16.0677 -10.7837 1.5
      vertex 13.25 -8.75 1.5
    endloop
  endfacet
  facet normal 0 0 1
    outer loop
      vertex 16.5 -8.75 1.5
      vertex 12.671 -7.4495 1.5
      vertex 13.0987 -8.03821 1.5
    endloop
  endfacet
  facet normal 0 0 1
    outer loop
      vertex 16.5 9.75 1.5
      vertex 12.0408 -7.08565 1.5
      vertex 12.671 -7.4495 1.5
    endloop
  endfacet
  facet normal -0 0 1
    outer loop
      vertex 11.5 9.75 1.5
      vertex 12.0408 -7.08565 1.5
      vertex 16.5 9.75 1.5
    endloop
  endfacet
  facet normal 0 0 1
    outer loop
      vertex 12.0408 -7.08565 1.5
      vertex 11.5 9.75 1.5
      vertex 11.3171 -7.00959 1.5
    endloop
  endfacet
  facet normal 0 0 1
    outer loop
      vertex 16.0677 -10.7837 1.5
      vertex 13.0987 -9.46179 1.5
      vertex 14.8457 -12.4657 1.5
    endloop
  endfacet
  facet normal -0 0 1
    outer loop
      vertex 12.671 -10.0505 1.5
      vertex 14.8457 -12.4657 1.5
      vertex 13.0987 -9.46179 1.5
    endloop
  endfacet
  facet normal 0 0 1
    outer loop
      vertex 14.8457 -12.4657 1.5
      vertex 12.671 -10.0505 1.5
      vertex 13.0451 -13.5053 1.5
    endloop
  endfacet
  facet normal -0 0 1
    outer loop
      vertex 12.0408 -10.4143 1.5
      vertex 13.0451 -13.5053 1.5
      vertex 12.671 -10.0505 1.5
    endloop
  endfacet
  facet normal 0 0 1
    outer loop
      vertex 12.0408 -10.4143 1.5
      vertex 11.5 -13.6677 1.5
      vertex 13.0451 -13.5053 1.5
    endloop
  endfacet
  facet normal -0 0 1
    outer loop
      vertex 11.3171 -10.4904 1.5
      vertex 11.5 -13.6677 1.5
      vertex 12.0408 -10.4143 1.5
    endloop
  endfacet
  facet normal 0 0 1
    outer loop
      vertex 10.625 -10.2655 1.5
      vertex 11.5 -13.6677 1.5
      vertex 11.3171 -10.4904 1.5
    endloop
  endfacet
  facet normal 0 0 1
    outer loop
      vertex 10.0842 -9.77862 1.5
      vertex 11.5 -13.6677 1.5
      vertex 10.625 -10.2655 1.5
    endloop
  endfacet
  facet normal 0 0 1
    outer loop
      vertex 11.5 -13.6677 1.5
      vertex 10.0842 -9.77862 1.5
      vertex 11.5 -13.75 1.5
    endloop
  endfacet
  facet normal -0 0 1
    outer loop
      vertex -9.90129 -9.46179 1.5
      vertex 10.0842 -9.77862 1.5
      vertex 9.78824 -9.11384 1.5
    endloop
  endfacet
  facet normal 0 0 1
    outer loop
      vertex -9.90129 -9.46179 1.5
      vertex 9.78824 -9.11384 1.5
      vertex -9.75 -8.75 1.5
    endloop
  endfacet
  facet normal 0 0 1
    outer loop
      vertex 10.0842 -9.77862 1.5
      vertex -9.90129 -9.46179 1.5
      vertex 11.5 -13.75 1.5
    endloop
  endfacet
  facet normal 0 0 1
    outer loop
      vertex -11.5 -13.75 1.5
      vertex -9.90129 -9.46179 1.5
      vertex -10.329 -10.0505 1.5
    endloop
  endfacet
  facet normal 0 0 1
    outer loop
      vertex -11.5 -13.6677 1.5
      vertex -10.329 -10.0505 1.5
      vertex -10.9592 -10.4143 1.5
    endloop
  endfacet
  facet normal 0 0 1
    outer loop
      vertex -10.329 -10.0505 1.5
      vertex -11.5 -13.6677 1.5
      vertex -11.5 -13.75 1.5
    endloop
  endfacet
  facet normal 0 0 1
    outer loop
      vertex -9.90129 -9.46179 1.5
      vertex -11.5 -13.75 1.5
      vertex 11.5 -13.75 1.5
    endloop
  endfacet
  facet normal 0 0 1
    outer loop
      vertex -13.2118 -9.11384 1.5
      vertex -16.3907 -9.78956 1.5
      vertex -15.5451 -11.6889 1.5
    endloop
  endfacet
  facet normal -1 0 0
    outer loop
      vertex 11.5 9.75 1.5
      vertex 11.5 13.75 14
      vertex 11.5 13.75 1.5
    endloop
  endfacet
  facet normal -1 -0 0
    outer loop
      vertex 11.5 13.75 14
      vertex 11.5 9.75 1.5
      vertex 11.5 9.75 14
    endloop
  endfacet
  facet normal 0 1 0
    outer loop
      vertex 16.5 13.75 14
      vertex 13.8955 13.75 8.74452
      vertex 11.5 13.75 14
    endloop
  endfacet
  facet normal 0 1 0
    outer loop
      vertex 16.5 13.75 14
      vertex 14.309 13.75 8.70106
      vertex 13.8955 13.75 8.74452
    endloop
  endfacet
  facet normal 0 1 0
    outer loop
      vertex 16.5 13.75 14
      vertex 14.6691 13.75 8.49314
      vertex 14.309 13.75 8.70106
    endloop
  endfacet
  facet normal 0 1 0
    outer loop
      vertex 16.5 13.75 14
      vertex 14.9135 13.75 8.15674
      vertex 14.6691 13.75 8.49314
    endloop
  endfacet
  facet normal 0 1 0
    outer loop
      vertex 16.5 13.75 14
      vertex 15 13.75 7.75
      vertex 14.9135 13.75 8.15674
    endloop
  endfacet
  facet normal 0 1 -0
    outer loop
      vertex 16.5 13.75 -1.5
      vertex 15 13.75 7.75
      vertex 16.5 13.75 14
    endloop
  endfacet
  facet normal 0 1 0
    outer loop
      vertex 14.309 13.75 6.79894
      vertex 11.5 13.75 1.5
      vertex 13.8955 13.75 6.75548
    endloop
  endfacet
  facet normal 0 1 0
    outer loop
      vertex 16.5 13.75 -1.5
      vertex 14.309 13.75 6.79894
      vertex 14.6691 13.75 7.00686
    endloop
  endfacet
  facet normal 0 1 0
    outer loop
      vertex 16.5 13.75 -1.5
      vertex 14.6691 13.75 7.00686
      vertex 14.9135 13.75 7.34326
    endloop
  endfacet
  facet normal 0 1 0
    outer loop
      vertex 11.5 13.75 1.5
      vertex 16.5 13.75 -1.5
      vertex -11.5 13.75 1.5
    endloop
  endfacet
  facet normal 0 1 0
    outer loop
      vertex 14.309 13.75 6.79894
      vertex 16.5 13.75 -1.5
      vertex 11.5 13.75 1.5
    endloop
  endfacet
  facet normal 0 1 0
    outer loop
      vertex 15 13.75 7.75
      vertex 16.5 13.75 -1.5
      vertex 14.9135 13.75 7.34326
    endloop
  endfacet
  facet normal 0 1 -0
    outer loop
      vertex 13.5 13.75 8.61602
      vertex 11.5 13.75 14
      vertex 13.8955 13.75 8.74452
    endloop
  endfacet
  facet normal 0 1 -0
    outer loop
      vertex 13.191 13.75 8.33778
      vertex 11.5 13.75 14
      vertex 13.5 13.75 8.61602
    endloop
  endfacet
  facet normal 0 1 -0
    outer loop
      vertex 13.0219 13.75 7.95791
      vertex 11.5 13.75 14
      vertex 13.191 13.75 8.33778
    endloop
  endfacet
  facet normal 0 1 -0
    outer loop
      vertex 13.0219 13.75 7.54209
      vertex 11.5 13.75 14
      vertex 13.0219 13.75 7.95791
    endloop
  endfacet
  facet normal 0 1 0
    outer loop
      vertex 13.0219 13.75 7.54209
      vertex 11.5 13.75 1.5
      vertex 11.5 13.75 14
    endloop
  endfacet
  facet normal 0 1 0
    outer loop
      vertex 13.191 13.75 7.16222
      vertex 11.5 13.75 1.5
      vertex 13.0219 13.75 7.54209
    endloop
  endfacet
  facet normal 0 1 0
    outer loop
      vertex 13.5 13.75 6.88398
      vertex 11.5 13.75 1.5
      vertex 13.191 13.75 7.16222
    endloop
  endfacet
  facet normal 0 1 0
    outer loop
      vertex 11.5 13.75 1.5
      vertex 13.5 13.75 6.88398
      vertex 13.8955 13.75 6.75548
    endloop
  endfacet
  facet normal 0 1 0
    outer loop
      vertex -11.5 13.75 14
      vertex -14.1045 13.75 8.74452
      vertex -16.5 13.75 14
    endloop
  endfacet
  facet normal 0 1 0
    outer loop
      vertex -11.5 13.75 14
      vertex -13.691 13.75 8.70106
      vertex -14.1045 13.75 8.74452
    endloop
  endfacet
  facet normal 0 1 0
    outer loop
      vertex -11.5 13.75 14
      vertex -13.3309 13.75 8.49314
      vertex -13.691 13.75 8.70106
    endloop
  endfacet
  facet normal 0 1 0
    outer loop
      vertex -11.5 13.75 14
      vertex -13.0865 13.75 8.15674
      vertex -13.3309 13.75 8.49314
    endloop
  endfacet
  facet normal 0 1 0
    outer loop
      vertex -11.5 13.75 14
      vertex -13 13.75 7.75
      vertex -13.0865 13.75 8.15674
    endloop
  endfacet
  facet normal 0 1 -0
    outer loop
      vertex -11.5 13.75 1.5
      vertex -13 13.75 7.75
      vertex -11.5 13.75 14
    endloop
  endfacet
  facet normal 0 1 0
    outer loop
      vertex -13.691 13.75 6.79894
      vertex -11.5 13.75 1.5
      vertex -14.1045 13.75 6.75548
    endloop
  endfacet
  facet normal 0 1 0
    outer loop
      vertex -13.3309 13.75 7.00686
      vertex -11.5 13.75 1.5
      vertex -13.691 13.75 6.79894
    endloop
  endfacet
  facet normal 0 1 0
    outer loop
      vertex -13.0865 13.75 7.34326
      vertex -11.5 13.75 1.5
      vertex -13.3309 13.75 7.00686
    endloop
  endfacet
  facet normal 0 1 0
    outer loop
      vertex -13 13.75 7.75
      vertex -11.5 13.75 1.5
      vertex -13.0865 13.75 7.34326
    endloop
  endfacet
  facet normal 0 1 -0
    outer loop
      vertex -14.5 13.75 8.61602
      vertex -16.5 13.75 14
      vertex -14.1045 13.75 8.74452
    endloop
  endfacet
  facet normal 0 1 -0
    outer loop
      vertex -14.809 13.75 8.33778
      vertex -16.5 13.75 14
      vertex -14.5 13.75 8.61602
    endloop
  endfacet
  facet normal 0 1 -0
    outer loop
      vertex -14.9781 13.75 7.95791
      vertex -16.5 13.75 14
      vertex -14.809 13.75 8.33778
    endloop
  endfacet
  facet normal 0 1 -0
    outer loop
      vertex -14.9781 13.75 7.54209
      vertex -16.5 13.75 14
      vertex -14.9781 13.75 7.95791
    endloop
  endfacet
  facet normal 0 1 0
    outer loop
      vertex -11.5 13.75 1.5
      vertex -14.5 13.75 6.88398
      vertex -14.1045 13.75 6.75548
    endloop
  endfacet
  facet normal 0 1 0
    outer loop
      vertex -16.5 13.75 -1.5
      vertex -14.5 13.75 6.88398
      vertex -11.5 13.75 1.5
    endloop
  endfacet
  facet normal 0 1 0
    outer loop
      vertex -14.9781 13.75 7.54209
      vertex -16.5 13.75 -1.5
      vertex -16.5 13.75 14
    endloop
  endfacet
  facet normal 0 1 0
    outer loop
      vertex -14.809 13.75 7.16222
      vertex -16.5 13.75 -1.5
      vertex -14.9781 13.75 7.54209
    endloop
  endfacet
  facet normal 0 1 0
    outer loop
      vertex -14.5 13.75 6.88398
      vertex -16.5 13.75 -1.5
      vertex -14.809 13.75 7.16222
    endloop
  endfacet
  facet normal 0 1 0
    outer loop
      vertex -16.5 13.75 -1.5
      vertex -11.5 13.75 1.5
      vertex 16.5 13.75 -1.5
    endloop
  endfacet
  facet normal 0 -1 0
    outer loop
      vertex 11.5 9.75 14
      vertex 13.8955 9.75 8.74452
      vertex 16.5 9.75 14
    endloop
  endfacet
  facet normal 0 -1 0
    outer loop
      vertex 11.5 9.75 14
      vertex 13.5 9.75 8.61602
      vertex 13.8955 9.75 8.74452
    endloop
  endfacet
  facet normal 0 -1 0
    outer loop
      vertex 11.5 9.75 14
      vertex 13.191 9.75 8.33778
      vertex 13.5 9.75 8.61602
    endloop
  endfacet
  facet normal 0 -1 0
    outer loop
      vertex 11.5 9.75 14
      vertex 13.0219 9.75 7.95791
      vertex 13.191 9.75 8.33778
    endloop
  endfacet
  facet normal 0 -1 0
    outer loop
      vertex 11.5 9.75 14
      vertex 13.0219 9.75 7.54209
      vertex 13.0219 9.75 7.95791
    endloop
  endfacet
  facet normal 0 -1 -0
    outer loop
      vertex 13.5 9.75 6.88398
      vertex 11.5 9.75 1.5
      vertex 13.8955 9.75 6.75548
    endloop
  endfacet
  facet normal 0 -1 -0
    outer loop
      vertex 13.191 9.75 7.16222
      vertex 11.5 9.75 1.5
      vertex 13.5 9.75 6.88398
    endloop
  endfacet
  facet normal 0 -1 -0
    outer loop
      vertex 13.0219 9.75 7.54209
      vertex 11.5 9.75 1.5
      vertex 13.191 9.75 7.16222
    endloop
  endfacet
  facet normal 0 -1 0
    outer loop
      vertex 11.5 9.75 1.5
      vertex 13.0219 9.75 7.54209
      vertex 11.5 9.75 14
    endloop
  endfacet
  facet normal 0 -1 0
    outer loop
      vertex 14.309 9.75 8.70106
      vertex 16.5 9.75 14
      vertex 13.8955 9.75 8.74452
    endloop
  endfacet
  facet normal 0 -1 0
    outer loop
      vertex 14.6691 9.75 8.49314
      vertex 16.5 9.75 14
      vertex 14.309 9.75 8.70106
    endloop
  endfacet
  facet normal 0 -1 0
    outer loop
      vertex 14.9135 9.75 8.15674
      vertex 16.5 9.75 14
      vertex 14.6691 9.75 8.49314
    endloop
  endfacet
  facet normal 0 -1 0
    outer loop
      vertex 15 9.75 7.75
      vertex 16.5 9.75 14
      vertex 14.9135 9.75 8.15674
    endloop
  endfacet
  facet normal 0 -1 0
    outer loop
      vertex 16.5 9.75 1.5
      vertex 15 9.75 7.75
      vertex 14.9135 9.75 7.34326
    endloop
  endfacet
  facet normal 0 -1 0
    outer loop
      vertex 16.5 9.75 1.5
      vertex 13.8955 9.75 6.75548
      vertex 11.5 9.75 1.5
    endloop
  endfacet
  facet normal 0 -1 0
    outer loop
      vertex 13.8955 9.75 6.75548
      vertex 16.5 9.75 1.5
      vertex 14.309 9.75 6.79894
    endloop
  endfacet
  facet normal 0 -1 0
    outer loop
      vertex 14.309 9.75 6.79894
      vertex 16.5 9.75 1.5
      vertex 14.6691 9.75 7.00686
    endloop
  endfacet
  facet normal 0 -1 0
    outer loop
      vertex 15 9.75 7.75
      vertex 16.5 9.75 1.5
      vertex 16.5 9.75 14
    endloop
  endfacet
  facet normal 0 -1 0
    outer loop
      vertex 14.6691 9.75 7.00686
      vertex 16.5 9.75 1.5
      vertex 14.9135 9.75 7.34326
    endloop
  endfacet
  facet normal -0.809027 0 -0.587771
    outer loop
      vertex 14.9135 9.75 8.15674
      vertex 14.6691 13.75 8.49314
      vertex 14.9135 13.75 8.15674
    endloop
  endfacet
  facet normal -0.809027 -0 -0.587771
    outer loop
      vertex 14.6691 13.75 8.49314
      vertex 14.9135 9.75 8.15674
      vertex 14.6691 9.75 8.49314
    endloop
  endfacet
  facet normal -0.978126 0 -0.208015
    outer loop
      vertex 15 9.75 7.75
      vertex 14.9135 13.75 8.15674
      vertex 15 13.75 7.75
    endloop
  endfacet
  facet normal -0.978126 -0 -0.208015
    outer loop
      vertex 14.9135 13.75 8.15674
      vertex 15 9.75 7.75
      vertex 14.9135 9.75 8.15674
    endloop
  endfacet
  facet normal 1 -0 0
    outer loop
      vertex 13.0219 9.75 7.95791
      vertex 13.0219 13.75 7.54209
      vertex 13.0219 13.75 7.95791
    endloop
  endfacet
  facet normal 1 0 0
    outer loop
      vertex 13.0219 13.75 7.54209
      vertex 13.0219 9.75 7.95791
      vertex 13.0219 9.75 7.54209
    endloop
  endfacet
  facet normal -0.500029 0 0.866009
    outer loop
      vertex 14.309 13.75 6.79894
      vertex 14.6691 9.75 7.00686
      vertex 14.6691 13.75 7.00686
    endloop
  endfacet
  facet normal -0.500029 0 0.866009
    outer loop
      vertex 14.6691 9.75 7.00686
      vertex 14.309 13.75 6.79894
      vertex 14.309 9.75 6.79894
    endloop
  endfacet
  facet normal -0.500029 0 -0.866009
    outer loop
      vertex 14.309 9.75 8.70106
      vertex 14.6691 13.75 8.49314
      vertex 14.6691 9.75 8.49314
    endloop
  endfacet
  facet normal -0.500029 0 -0.866009
    outer loop
      vertex 14.6691 13.75 8.49314
      vertex 14.309 9.75 8.70106
      vertex 14.309 13.75 8.70106
    endloop
  endfacet
  facet normal -0.809027 0 0.587771
    outer loop
      vertex 14.6691 9.75 7.00686
      vertex 14.9135 13.75 7.34326
      vertex 14.6691 13.75 7.00686
    endloop
  endfacet
  facet normal -0.809027 0 0.587771
    outer loop
      vertex 14.9135 13.75 7.34326
      vertex 14.6691 9.75 7.00686
      vertex 14.9135 9.75 7.34326
    endloop
  endfacet
  facet normal -0.104527 0 -0.994522
    outer loop
      vertex 13.8955 9.75 8.74452
      vertex 14.309 13.75 8.70106
      vertex 14.309 9.75 8.70106
    endloop
  endfacet
  facet normal -0.104527 0 -0.994522
    outer loop
      vertex 14.309 13.75 8.70106
      vertex 13.8955 9.75 8.74452
      vertex 13.8955 13.75 8.74452
    endloop
  endfacet
  facet normal 0.669151 0 -0.743127
    outer loop
      vertex 13.191 9.75 8.33778
      vertex 13.5 13.75 8.61602
      vertex 13.5 9.75 8.61602
    endloop
  endfacet
  facet normal 0.669151 0 -0.743127
    outer loop
      vertex 13.5 13.75 8.61602
      vertex 13.191 9.75 8.33778
      vertex 13.191 13.75 8.33778
    endloop
  endfacet
  facet normal -0.978126 0 0.208015
    outer loop
      vertex 14.9135 9.75 7.34326
      vertex 15 13.75 7.75
      vertex 14.9135 13.75 7.34326
    endloop
  endfacet
  facet normal -0.978126 0 0.208015
    outer loop
      vertex 15 13.75 7.75
      vertex 14.9135 9.75 7.34326
      vertex 15 9.75 7.75
    endloop
  endfacet
  facet normal 0.913571 0 -0.406678
    outer loop
      vertex 13.191 9.75 8.33778
      vertex 13.0219 13.75 7.95791
      vertex 13.191 13.75 8.33778
    endloop
  endfacet
  facet normal 0.913571 0 -0.406678
    outer loop
      vertex 13.0219 13.75 7.95791
      vertex 13.191 9.75 8.33778
      vertex 13.0219 9.75 7.95791
    endloop
  endfacet
  facet normal -0.104527 0 0.994522
    outer loop
      vertex 13.8955 13.75 6.75548
      vertex 14.309 9.75 6.79894
      vertex 14.309 13.75 6.79894
    endloop
  endfacet
  facet normal -0.104527 0 0.994522
    outer loop
      vertex 14.309 9.75 6.79894
      vertex 13.8955 13.75 6.75548
      vertex 13.8955 9.75 6.75548
    endloop
  endfacet
  facet normal 0.309005 0 0.951061
    outer loop
      vertex 13.5 13.75 6.88398
      vertex 13.8955 9.75 6.75548
      vertex 13.8955 13.75 6.75548
    endloop
  endfacet
  facet normal 0.309005 0 0.951061
    outer loop
      vertex 13.8955 9.75 6.75548
      vertex 13.5 13.75 6.88398
      vertex 13.5 9.75 6.88398
    endloop
  endfacet
  facet normal 0.309005 0 -0.951061
    outer loop
      vertex 13.5 9.75 8.61602
      vertex 13.8955 13.75 8.74452
      vertex 13.8955 9.75 8.74452
    endloop
  endfacet
  facet normal 0.309005 0 -0.951061
    outer loop
      vertex 13.8955 13.75 8.74452
      vertex 13.5 9.75 8.61602
      vertex 13.5 13.75 8.61602
    endloop
  endfacet
  facet normal 0.669151 0 0.743127
    outer loop
      vertex 13.191 13.75 7.16222
      vertex 13.5 9.75 6.88398
      vertex 13.5 13.75 6.88398
    endloop
  endfacet
  facet normal 0.669151 0 0.743127
    outer loop
      vertex 13.5 9.75 6.88398
      vertex 13.191 13.75 7.16222
      vertex 13.191 9.75 7.16222
    endloop
  endfacet
  facet normal 0.913571 -0 0.406678
    outer loop
      vertex 13.0219 9.75 7.54209
      vertex 13.191 13.75 7.16222
      vertex 13.0219 13.75 7.54209
    endloop
  endfacet
  facet normal 0.913571 0 0.406678
    outer loop
      vertex 13.191 13.75 7.16222
      vertex 13.0219 9.75 7.54209
      vertex 13.191 9.75 7.16222
    endloop
  endfacet
  facet normal 1 -0 0
    outer loop
      vertex -11.5 9.75 14
      vertex -11.5 13.75 1.5
      vertex -11.5 13.75 14
    endloop
  endfacet
  facet normal 1 0 0
    outer loop
      vertex -11.5 13.75 1.5
      vertex -11.5 9.75 14
      vertex -11.5 9.75 1.5
    endloop
  endfacet
  facet normal -0 0 1
    outer loop
      vertex -16.5 13.75 14
      vertex -11.5 9.75 14
      vertex -11.5 13.75 14
    endloop
  endfacet
  facet normal 0 0 1
    outer loop
      vertex -11.5 9.75 14
      vertex -16.5 13.75 14
      vertex -16.5 9.75 14
    endloop
  endfacet
  facet normal -1 0 0
    outer loop
      vertex -16.5 13.75 -1.5
      vertex -16.5 9.75 1.5
      vertex -16.5 13.75 14
    endloop
  endfacet
  facet normal -1 0 0
    outer loop
      vertex -16.5 -8.75 -1.5
      vertex -16.5 9.75 1.5
      vertex -16.5 13.75 -1.5
    endloop
  endfacet
  facet normal -1 -0 0
    outer loop
      vertex -16.5 9.75 1.5
      vertex -16.5 -8.75 -1.5
      vertex -16.5 -8.75 1.5
    endloop
  endfacet
  facet normal -1 -0 0
    outer loop
      vertex -16.5 13.75 14
      vertex -16.5 9.75 1.5
      vertex -16.5 9.75 14
    endloop
  endfacet
  facet normal 0 -1 0
    outer loop
      vertex -16.5 9.75 14
      vertex -14.1045 9.75 8.74452
      vertex -11.5 9.75 14
    endloop
  endfacet
  facet normal 0 -1 0
    outer loop
      vertex -16.5 9.75 14
      vertex -14.5 9.75 8.61602
      vertex -14.1045 9.75 8.74452
    endloop
  endfacet
  facet normal 0 -1 0
    outer loop
      vertex -16.5 9.75 14
      vertex -14.809 9.75 8.33778
      vertex -14.5 9.75 8.61602
    endloop
  endfacet
  facet normal 0 -1 0
    outer loop
      vertex -16.5 9.75 14
      vertex -14.9781 9.75 7.95791
      vertex -14.809 9.75 8.33778
    endloop
  endfacet
  facet normal 0 -1 0
    outer loop
      vertex -16.5 9.75 14
      vertex -14.9781 9.75 7.54209
      vertex -14.9781 9.75 7.95791
    endloop
  endfacet
  facet normal 0 -1 -0
    outer loop
      vertex -14.5 9.75 6.88398
      vertex -16.5 9.75 1.5
      vertex -14.1045 9.75 6.75548
    endloop
  endfacet
  facet normal 0 -1 -0
    outer loop
      vertex -14.809 9.75 7.16222
      vertex -16.5 9.75 1.5
      vertex -14.5 9.75 6.88398
    endloop
  endfacet
  facet normal 0 -1 -0
    outer loop
      vertex -14.9781 9.75 7.54209
      vertex -16.5 9.75 1.5
      vertex -14.809 9.75 7.16222
    endloop
  endfacet
  facet normal 0 -1 0
    outer loop
      vertex -16.5 9.75 1.5
      vertex -14.9781 9.75 7.54209
      vertex -16.5 9.75 14
    endloop
  endfacet
  facet normal 0 -1 0
    outer loop
      vertex -13.691 9.75 8.70106
      vertex -11.5 9.75 14
      vertex -14.1045 9.75 8.74452
    endloop
  endfacet
  facet normal 0 -1 0
    outer loop
      vertex -13.3309 9.75 8.49314
      vertex -11.5 9.75 14
      vertex -13.691 9.75 8.70106
    endloop
  endfacet
  facet normal 0 -1 0
    outer loop
      vertex -13.0865 9.75 8.15674
      vertex -11.5 9.75 14
      vertex -13.3309 9.75 8.49314
    endloop
  endfacet
  facet normal 0 -1 0
    outer loop
      vertex -13 9.75 7.75
      vertex -11.5 9.75 14
      vertex -13.0865 9.75 8.15674
    endloop
  endfacet
  facet normal 0 -1 0
    outer loop
      vertex -11.5 9.75 1.5
      vertex -13 9.75 7.75
      vertex -13.0865 9.75 7.34326
    endloop
  endfacet
  facet normal 0 -1 0
    outer loop
      vertex -11.5 9.75 1.5
      vertex -14.1045 9.75 6.75548
      vertex -16.5 9.75 1.5
    endloop
  endfacet
  facet normal 0 -1 0
    outer loop
      vertex -14.1045 9.75 6.75548
      vertex -11.5 9.75 1.5
      vertex -13.691 9.75 6.79894
    endloop
  endfacet
  facet normal 0 -1 0
    outer loop
      vertex -13.691 9.75 6.79894
      vertex -11.5 9.75 1.5
      vertex -13.3309 9.75 7.00686
    endloop
  endfacet
  facet normal 0 -1 0
    outer loop
      vertex -13 9.75 7.75
      vertex -11.5 9.75 1.5
      vertex -11.5 9.75 14
    endloop
  endfacet
  facet normal 0 -1 0
    outer loop
      vertex -13.3309 9.75 7.00686
      vertex -11.5 9.75 1.5
      vertex -13.0865 9.75 7.34326
    endloop
  endfacet
  facet normal -0.809027 0 -0.587771
    outer loop
      vertex -13.0865 9.75 8.15674
      vertex -13.3309 13.75 8.49314
      vertex -13.0865 13.75 8.15674
    endloop
  endfacet
  facet normal -0.809027 -0 -0.587771
    outer loop
      vertex -13.3309 13.75 8.49314
      vertex -13.0865 9.75 8.15674
      vertex -13.3309 9.75 8.49314
    endloop
  endfacet
  facet normal -0.978126 0 -0.208015
    outer loop
      vertex -13 9.75 7.75
      vertex -13.0865 13.75 8.15674
      vertex -13 13.75 7.75
    endloop
  endfacet
  facet normal -0.978126 -0 -0.208015
    outer loop
      vertex -13.0865 13.75 8.15674
      vertex -13 9.75 7.75
      vertex -13.0865 9.75 8.15674
    endloop
  endfacet
  facet normal 1 -0 0
    outer loop
      vertex -14.9781 9.75 7.95791
      vertex -14.9781 13.75 7.54209
      vertex -14.9781 13.75 7.95791
    endloop
  endfacet
  facet normal 1 0 0
    outer loop
      vertex -14.9781 13.75 7.54209
      vertex -14.9781 9.75 7.95791
      vertex -14.9781 9.75 7.54209
    endloop
  endfacet
  facet normal -0.500029 0 0.866009
    outer loop
      vertex -13.691 13.75 6.79894
      vertex -13.3309 9.75 7.00686
      vertex -13.3309 13.75 7.00686
    endloop
  endfacet
  facet normal -0.500029 0 0.866009
    outer loop
      vertex -13.3309 9.75 7.00686
      vertex -13.691 13.75 6.79894
      vertex -13.691 9.75 6.79894
    endloop
  endfacet
  facet normal -0.500029 0 -0.866009
    outer loop
      vertex -13.691 9.75 8.70106
      vertex -13.3309 13.75 8.49314
      vertex -13.3309 9.75 8.49314
    endloop
  endfacet
  facet normal -0.500029 0 -0.866009
    outer loop
      vertex -13.3309 13.75 8.49314
      vertex -13.691 9.75 8.70106
      vertex -13.691 13.75 8.70106
    endloop
  endfacet
  facet normal -0.809027 0 0.587771
    outer loop
      vertex -13.3309 9.75 7.00686
      vertex -13.0865 13.75 7.34326
      vertex -13.3309 13.75 7.00686
    endloop
  endfacet
  facet normal -0.809027 0 0.587771
    outer loop
      vertex -13.0865 13.75 7.34326
      vertex -13.3309 9.75 7.00686
      vertex -13.0865 9.75 7.34326
    endloop
  endfacet
  facet normal -0.104527 0 -0.994522
    outer loop
      vertex -14.1045 9.75 8.74452
      vertex -13.691 13.75 8.70106
      vertex -13.691 9.75 8.70106
    endloop
  endfacet
  facet normal -0.104527 0 -0.994522
    outer loop
      vertex -13.691 13.75 8.70106
      vertex -14.1045 9.75 8.74452
      vertex -14.1045 13.75 8.74452
    endloop
  endfacet
  facet normal 0.669151 0 -0.743127
    outer loop
      vertex -14.809 9.75 8.33778
      vertex -14.5 13.75 8.61602
      vertex -14.5 9.75 8.61602
    endloop
  endfacet
  facet normal 0.669151 0 -0.743127
    outer loop
      vertex -14.5 13.75 8.61602
      vertex -14.809 9.75 8.33778
      vertex -14.809 13.75 8.33778
    endloop
  endfacet
  facet normal -0.978126 0 0.208015
    outer loop
      vertex -13.0865 9.75 7.34326
      vertex -13 13.75 7.75
      vertex -13.0865 13.75 7.34326
    endloop
  endfacet
  facet normal -0.978126 0 0.208015
    outer loop
      vertex -13 13.75 7.75
      vertex -13.0865 9.75 7.34326
      vertex -13 9.75 7.75
    endloop
  endfacet
  facet normal 0.913571 0 -0.406678
    outer loop
      vertex -14.809 9.75 8.33778
      vertex -14.9781 13.75 7.95791
      vertex -14.809 13.75 8.33778
    endloop
  endfacet
  facet normal 0.913571 0 -0.406678
    outer loop
      vertex -14.9781 13.75 7.95791
      vertex -14.809 9.75 8.33778
      vertex -14.9781 9.75 7.95791
    endloop
  endfacet
  facet normal -0.104527 0 0.994522
    outer loop
      vertex -14.1045 13.75 6.75548
      vertex -13.691 9.75 6.79894
      vertex -13.691 13.75 6.79894
    endloop
  endfacet
  facet normal -0.104527 0 0.994522
    outer loop
      vertex -13.691 9.75 6.79894
      vertex -14.1045 13.75 6.75548
      vertex -14.1045 9.75 6.75548
    endloop
  endfacet
  facet normal 0.309005 0 0.951061
    outer loop
      vertex -14.5 13.75 6.88398
      vertex -14.1045 9.75 6.75548
      vertex -14.1045 13.75 6.75548
    endloop
  endfacet
  facet normal 0.309005 0 0.951061
    outer loop
      vertex -14.1045 9.75 6.75548
      vertex -14.5 13.75 6.88398
      vertex -14.5 9.75 6.88398
    endloop
  endfacet
  facet normal 0.309005 0 -0.951061
    outer loop
      vertex -14.5 9.75 8.61602
      vertex -14.1045 13.75 8.74452
      vertex -14.1045 9.75 8.74452
    endloop
  endfacet
  facet normal 0.309005 0 -0.951061
    outer loop
      vertex -14.1045 13.75 8.74452
      vertex -14.5 9.75 8.61602
      vertex -14.5 13.75 8.61602
    endloop
  endfacet
  facet normal 0.669151 0 0.743127
    outer loop
      vertex -14.809 13.75 7.16222
      vertex -14.5 9.75 6.88398
      vertex -14.5 13.75 6.88398
    endloop
  endfacet
  facet normal 0.669151 0 0.743127
    outer loop
      vertex -14.5 9.75 6.88398
      vertex -14.809 13.75 7.16222
      vertex -14.809 9.75 7.16222
    endloop
  endfacet
  facet normal 0.913571 -0 0.406678
    outer loop
      vertex -14.9781 9.75 7.54209
      vertex -14.809 13.75 7.16222
      vertex -14.9781 13.75 7.54209
    endloop
  endfacet
  facet normal 0.913571 0 0.406678
    outer loop
      vertex -14.809 13.75 7.16222
      vertex -14.9781 9.75 7.54209
      vertex -14.809 9.75 7.16222
    endloop
  endfacet
  facet normal 0 0 -1
    outer loop
      vertex 10.0842 -9.77862 -1.5
      vertex 11.5 -13.6677 -1.5
      vertex 11.5 -13.75 -1.5
    endloop
  endfacet
  facet normal 0 0 -1
    outer loop
      vertex 11.5 -13.6677 -1.5
      vertex 10.625 -10.2655 -1.5
      vertex 11.3171 -10.4904 -1.5
    endloop
  endfacet
  facet normal 0 0 -1
    outer loop
      vertex 11.5 -13.6677 -1.5
      vertex 10.0842 -9.77862 -1.5
      vertex 10.625 -10.2655 -1.5
    endloop
  endfacet
  facet normal 0 0 -1
    outer loop
      vertex -9.90129 -9.46179 -1.5
      vertex 10.0842 -9.77862 -1.5
      vertex 11.5 -13.75 -1.5
    endloop
  endfacet
  facet normal 0 0 -1
    outer loop
      vertex 9.78824 -9.11384 -1.5
      vertex -9.75 -8.75 -1.5
      vertex 9.78824 -8.38615 -1.5
    endloop
  endfacet
  facet normal 0 0 -1
    outer loop
      vertex 10.0842 -9.77862 -1.5
      vertex -9.90129 -9.46179 -1.5
      vertex 9.78824 -9.11384 -1.5
    endloop
  endfacet
  facet normal -0 0 -1
    outer loop
      vertex 9.78824 -9.11384 -1.5
      vertex -9.90129 -9.46179 -1.5
      vertex -9.75 -8.75 -1.5
    endloop
  endfacet
  facet normal 0 0 -1
    outer loop
      vertex -11.5 -13.75 -1.5
      vertex -9.90129 -9.46179 -1.5
      vertex 11.5 -13.75 -1.5
    endloop
  endfacet
  facet normal 0 0 -1
    outer loop
      vertex -9.90129 -9.46179 -1.5
      vertex -11.5 -13.75 -1.5
      vertex -10.329 -10.0505 -1.5
    endloop
  endfacet
  facet normal 0 0 -1
    outer loop
      vertex -11.5 -13.6677 -1.5
      vertex -10.329 -10.0505 -1.5
      vertex -11.5 -13.75 -1.5
    endloop
  endfacet
  facet normal 0 0 -1
    outer loop
      vertex -10.329 -10.0505 -1.5
      vertex -11.5 -13.6677 -1.5
      vertex -10.9592 -10.4143 -1.5
    endloop
  endfacet
  facet normal 0 0 -1
    outer loop
      vertex -11.5 -13.6677 -1.5
      vertex -11.6829 -10.4904 -1.5
      vertex -10.9592 -10.4143 -1.5
    endloop
  endfacet
  facet normal 0 0 -1
    outer loop
      vertex -12.0226 -13.7226 -1.5
      vertex -11.6829 -10.4904 -1.5
      vertex -11.5 -13.6677 -1.5
    endloop
  endfacet
  facet normal 0 0 -1
    outer loop
      vertex -12.0226 -13.7226 -1.5
      vertex -12.375 -10.2655 -1.5
      vertex -11.6829 -10.4904 -1.5
    endloop
  endfacet
  facet normal 0 0 -1
    outer loop
      vertex -14 -13.0801 -1.5
      vertex -12.375 -10.2655 -1.5
      vertex -12.0226 -13.7226 -1.5
    endloop
  endfacet
  facet normal -0 0 -1
    outer loop
      vertex -12.375 -10.2655 -1.5
      vertex -14 -13.0801 -1.5
      vertex -12.9158 -9.77862 -1.5
    endloop
  endfacet
  facet normal -0 0 -1
    outer loop
      vertex -12.9158 -9.77862 -1.5
      vertex -15.5451 -11.6889 -1.5
      vertex -13.2118 -9.11384 -1.5
    endloop
  endfacet
  facet normal 0 0 -1
    outer loop
      vertex -15.5451 -11.6889 -1.5
      vertex -12.9158 -9.77862 -1.5
      vertex -14 -13.0801 -1.5
    endloop
  endfacet
  facet normal 0 0 -1
    outer loop
      vertex 16.0677 -10.7837 -1.5
      vertex 13.0987 -9.46179 -1.5
      vertex 13.25 -8.75 -1.5
    endloop
  endfacet
  facet normal 0 0 -1
    outer loop
      vertex 12.671 -10.0505 -1.5
      vertex 14.8457 -12.4657 -1.5
      vertex 13.0451 -13.5053 -1.5
    endloop
  endfacet
  facet normal 0 0 -1
    outer loop
      vertex 14.8457 -12.4657 -1.5
      vertex 12.671 -10.0505 -1.5
      vertex 13.0987 -9.46179 -1.5
    endloop
  endfacet
  facet normal 0 0 -1
    outer loop
      vertex 13.0451 -13.5053 -1.5
      vertex 12.0408 -10.4143 -1.5
      vertex 12.671 -10.0505 -1.5
    endloop
  endfacet
  facet normal 0 0 -1
    outer loop
      vertex 11.5 -13.6677 -1.5
      vertex 12.0408 -10.4143 -1.5
      vertex 13.0451 -13.5053 -1.5
    endloop
  endfacet
  facet normal 0 0 -1
    outer loop
      vertex 12.0408 -10.4143 -1.5
      vertex 11.5 -13.6677 -1.5
      vertex 11.3171 -10.4904 -1.5
    endloop
  endfacet
  facet normal 0 0 -1
    outer loop
      vertex 13.25 -8.75 -1.5
      vertex 16.5 -8.75 -1.5
      vertex 16.0677 -10.7837 -1.5
    endloop
  endfacet
  facet normal 0 0 -1
    outer loop
      vertex 13.0987 -9.46179 -1.5
      vertex 16.0677 -10.7837 -1.5
      vertex 14.8457 -12.4657 -1.5
    endloop
  endfacet
  facet normal 0 0 -1
    outer loop
      vertex 16.5 -8.75 -1.5
      vertex 13.25 -8.75 -1.5
      vertex 13.0987 -8.03821 -1.5
    endloop
  endfacet
  facet normal 0 0 -1
    outer loop
      vertex 16.5 -8.75 -1.5
      vertex 13.0987 -8.03821 -1.5
      vertex 12.671 -7.4495 -1.5
    endloop
  endfacet
  facet normal 0 0 -1
    outer loop
      vertex 16.5 -8.75 -1.5
      vertex 12.671 -7.4495 -1.5
      vertex 16.5 13.75 -1.5
    endloop
  endfacet
  facet normal 0 0 -1
    outer loop
      vertex 12.0408 -7.08565 -1.5
      vertex 16.5 13.75 -1.5
      vertex 12.671 -7.4495 -1.5
    endloop
  endfacet
  facet normal 0 0 -1
    outer loop
      vertex 11.3171 -7.00959 -1.5
      vertex 16.5 13.75 -1.5
      vertex 12.0408 -7.08565 -1.5
    endloop
  endfacet
  facet normal 0 0 -1
    outer loop
      vertex 10.625 -7.23446 -1.5
      vertex 16.5 13.75 -1.5
      vertex 11.3171 -7.00959 -1.5
    endloop
  endfacet
  facet normal 0 0 -1
    outer loop
      vertex -10.329 -7.4495 -1.5
      vertex 10.625 -7.23446 -1.5
      vertex 10.0842 -7.72138 -1.5
    endloop
  endfacet
  facet normal 0 0 -1
    outer loop
      vertex -9.90129 -8.03821 -1.5
      vertex 10.0842 -7.72138 -1.5
      vertex 9.78824 -8.38615 -1.5
    endloop
  endfacet
  facet normal 0 0 -1
    outer loop
      vertex -9.90129 -8.03821 -1.5
      vertex 9.78824 -8.38615 -1.5
      vertex -9.75 -8.75 -1.5
    endloop
  endfacet
  facet normal -0 0 -1
    outer loop
      vertex 10.0842 -7.72138 -1.5
      vertex -9.90129 -8.03821 -1.5
      vertex -10.329 -7.4495 -1.5
    endloop
  endfacet
  facet normal -0 0 -1
    outer loop
      vertex 10.625 -7.23446 -1.5
      vertex -10.329 -7.4495 -1.5
      vertex 16.5 13.75 -1.5
    endloop
  endfacet
  facet normal 0 0 -1
    outer loop
      vertex -16.5 13.75 -1.5
      vertex -10.329 -7.4495 -1.5
      vertex -10.9592 -7.08565 -1.5
    endloop
  endfacet
  facet normal 0 0 -1
    outer loop
      vertex -16.5 13.75 -1.5
      vertex -10.9592 -7.08565 -1.5
      vertex -11.6829 -7.00959 -1.5
    endloop
  endfacet
  facet normal 0 0 -1
    outer loop
      vertex -16.5 13.75 -1.5
      vertex -11.6829 -7.00959 -1.5
      vertex -12.375 -7.23446 -1.5
    endloop
  endfacet
  facet normal 0 0 -1
    outer loop
      vertex -16.3907 -9.78956 -1.5
      vertex -13.2118 -9.11384 -1.5
      vertex -15.5451 -11.6889 -1.5
    endloop
  endfacet
  facet normal 0 0 -1
    outer loop
      vertex -16.3907 -8.75 -1.5
      vertex -13.2118 -9.11384 -1.5
      vertex -16.3907 -9.78956 -1.5
    endloop
  endfacet
  facet normal 0 0 -1
    outer loop
      vertex -13.2118 -9.11384 -1.5
      vertex -16.3907 -8.75 -1.5
      vertex -13.2118 -8.38615 -1.5
    endloop
  endfacet
  facet normal -0 0 -1
    outer loop
      vertex -13.2118 -8.38615 -1.5
      vertex -16.3907 -8.75 -1.5
      vertex -12.9158 -7.72138 -1.5
    endloop
  endfacet
  facet normal -0 0 -1
    outer loop
      vertex -12.9158 -7.72138 -1.5
      vertex -16.3907 -8.75 -1.5
      vertex -12.375 -7.23446 -1.5
    endloop
  endfacet
  facet normal 0 0 -1
    outer loop
      vertex -16.5 -8.75 -1.5
      vertex -12.375 -7.23446 -1.5
      vertex -16.3907 -8.75 -1.5
    endloop
  endfacet
  facet normal -0 0 -1
    outer loop
      vertex -12.375 -7.23446 -1.5
      vertex -16.5 -8.75 -1.5
      vertex -16.5 13.75 -1.5
    endloop
  endfacet
  facet normal 0 0 -1
    outer loop
      vertex -10.329 -7.4495 -1.5
      vertex -16.5 13.75 -1.5
      vertex 16.5 13.75 -1.5
    endloop
  endfacet
  facet normal 0 -1 0
    outer loop
      vertex -16.5 -8.75 -1.5
      vertex -16.3907 -8.75 1.5
      vertex -16.5 -8.75 1.5
    endloop
  endfacet
  facet normal 0 -1 -0
    outer loop
      vertex -16.3907 -8.75 1.5
      vertex -16.5 -8.75 -1.5
      vertex -16.3907 -8.75 -1.5
    endloop
  endfacet
  facet normal 1 -0 0
    outer loop
      vertex 11.5 -13.75 1.5
      vertex 11.5 -13.6677 -1.5
      vertex 11.5 -13.6677 1.5
    endloop
  endfacet
  facet normal 1 0 0
    outer loop
      vertex 11.5 -13.6677 -1.5
      vertex 11.5 -13.75 1.5
      vertex 11.5 -13.75 -1.5
    endloop
  endfacet
  facet normal -1 0 0
    outer loop
      vertex -11.5 -13.75 -1.5
      vertex -11.5 -13.6677 1.5
      vertex -11.5 -13.6677 -1.5
    endloop
  endfacet
  facet normal -1 -0 0
    outer loop
      vertex -11.5 -13.6677 1.5
      vertex -11.5 -13.75 -1.5
      vertex -11.5 -13.75 1.5
    endloop
  endfacet
  facet normal 0 -1 0
    outer loop
      vertex -11.5 -13.75 -1.5
      vertex 11.5 -13.75 1.5
      vertex -11.5 -13.75 1.5
    endloop
  endfacet
  facet normal 0 -1 -0
    outer loop
      vertex 11.5 -13.75 1.5
      vertex -11.5 -13.75 -1.5
      vertex 11.5 -13.75 -1.5
    endloop
  endfacet
  facet normal 0.500008 -0.866021 0
    outer loop
      vertex 13.0451 -13.5053 -1.5
      vertex 14.8457 -12.4657 1.5
      vertex 13.0451 -13.5053 1.5
    endloop
  endfacet
  facet normal 0.500008 -0.866021 0
    outer loop
      vertex 14.8457 -12.4657 1.5
      vertex 13.0451 -13.5053 -1.5
      vertex 14.8457 -12.4657 -1.5
    endloop
  endfacet
  facet normal 0.809027 -0.587771 0
    outer loop
      vertex 14.8457 -12.4657 1.5
      vertex 16.0677 -10.7837 -1.5
      vertex 16.0677 -10.7837 1.5
    endloop
  endfacet
  facet normal 0.809027 -0.587771 0
    outer loop
      vertex 16.0677 -10.7837 -1.5
      vertex 14.8457 -12.4657 1.5
      vertex 14.8457 -12.4657 -1.5
    endloop
  endfacet
  facet normal 0.104531 -0.994522 0
    outer loop
      vertex 11.5 -13.6677 -1.5
      vertex 13.0451 -13.5053 1.5
      vertex 11.5 -13.6677 1.5
    endloop
  endfacet
  facet normal 0.104531 -0.994522 0
    outer loop
      vertex 13.0451 -13.5053 1.5
      vertex 11.5 -13.6677 -1.5
      vertex 13.0451 -13.5053 -1.5
    endloop
  endfacet
  facet normal 0.978145 -0.207923 0
    outer loop
      vertex 16.0677 -10.7837 1.5
      vertex 16.5 -8.75 -1.5
      vertex 16.5 -8.75 1.5
    endloop
  endfacet
  facet normal 0.978145 -0.207923 0
    outer loop
      vertex 16.5 -8.75 -1.5
      vertex 16.0677 -10.7837 1.5
      vertex 16.0677 -10.7837 -1.5
    endloop
  endfacet
  facet normal -0.309019 -0.951056 0
    outer loop
      vertex -14 -13.0801 -1.5
      vertex -12.0226 -13.7226 1.5
      vertex -14 -13.0801 1.5
    endloop
  endfacet
  facet normal -0.309019 -0.951056 -0
    outer loop
      vertex -12.0226 -13.7226 1.5
      vertex -14 -13.0801 -1.5
      vertex -12.0226 -13.7226 -1.5
    endloop
  endfacet
  facet normal -1 0 0
    outer loop
      vertex -16.3907 -9.78956 -1.5
      vertex -16.3907 -8.75 1.5
      vertex -16.3907 -8.75 -1.5
    endloop
  endfacet
  facet normal -1 -0 0
    outer loop
      vertex -16.3907 -8.75 1.5
      vertex -16.3907 -9.78956 -1.5
      vertex -16.3907 -9.78956 1.5
    endloop
  endfacet
  facet normal 0.104477 -0.994527 0
    outer loop
      vertex -12.0226 -13.7226 -1.5
      vertex -11.5 -13.6677 1.5
      vertex -12.0226 -13.7226 1.5
    endloop
  endfacet
  facet normal 0.104477 -0.994527 0
    outer loop
      vertex -11.5 -13.6677 1.5
      vertex -12.0226 -13.7226 -1.5
      vertex -11.5 -13.6677 -1.5
    endloop
  endfacet
  facet normal -0.669127 -0.743148 0
    outer loop
      vertex -15.5451 -11.6889 -1.5
      vertex -14 -13.0801 1.5
      vertex -15.5451 -11.6889 1.5
    endloop
  endfacet
  facet normal -0.669127 -0.743148 -0
    outer loop
      vertex -14 -13.0801 1.5
      vertex -15.5451 -11.6889 -1.5
      vertex -14 -13.0801 -1.5
    endloop
  endfacet
  facet normal -0.913553 -0.40672 0
    outer loop
      vertex -15.5451 -11.6889 -1.5
      vertex -16.3907 -9.78956 1.5
      vertex -16.3907 -9.78956 -1.5
    endloop
  endfacet
  facet normal -0.913553 -0.40672 0
    outer loop
      vertex -16.3907 -9.78956 1.5
      vertex -15.5451 -11.6889 -1.5
      vertex -15.5451 -11.6889 1.5
    endloop
  endfacet
  facet normal -0.809032 -0.587765 0
    outer loop
      vertex 13.0987 -8.03821 -1.5
      vertex 12.671 -7.4495 1.5
      vertex 12.671 -7.4495 -1.5
    endloop
  endfacet
  facet normal -0.809032 -0.587765 0
    outer loop
      vertex 12.671 -7.4495 1.5
      vertex 13.0987 -8.03821 -1.5
      vertex 13.0987 -8.03821 1.5
    endloop
  endfacet
  facet normal -0.978146 -0.207917 0
    outer loop
      vertex 13.25 -8.75 -1.5
      vertex 13.0987 -8.03821 1.5
      vertex 13.0987 -8.03821 -1.5
    endloop
  endfacet
  facet normal -0.978146 -0.207917 0
    outer loop
      vertex 13.0987 -8.03821 1.5
      vertex 13.25 -8.75 -1.5
      vertex 13.25 -8.75 1.5
    endloop
  endfacet
  facet normal 0.913555 0.406715 0
    outer loop
      vertex 10.0842 -9.77862 1.5
      vertex 9.78824 -9.11384 -1.5
      vertex 9.78824 -9.11384 1.5
    endloop
  endfacet
  facet normal 0.913555 0.406715 0
    outer loop
      vertex 9.78824 -9.11384 -1.5
      vertex 10.0842 -9.77862 1.5
      vertex 10.0842 -9.77862 -1.5
    endloop
  endfacet
  facet normal -0.499952 0.866053 0
    outer loop
      vertex 12.671 -10.0505 -1.5
      vertex 12.0408 -10.4143 1.5
      vertex 12.671 -10.0505 1.5
    endloop
  endfacet
  facet normal -0.499952 0.866053 0
    outer loop
      vertex 12.0408 -10.4143 1.5
      vertex 12.671 -10.0505 -1.5
      vertex 12.0408 -10.4143 -1.5
    endloop
  endfacet
  facet normal 0.309008 -0.951059 0
    outer loop
      vertex 10.625 -7.23446 -1.5
      vertex 11.3171 -7.00959 1.5
      vertex 10.625 -7.23446 1.5
    endloop
  endfacet
  facet normal 0.309008 -0.951059 0
    outer loop
      vertex 11.3171 -7.00959 1.5
      vertex 10.625 -7.23446 -1.5
      vertex 11.3171 -7.00959 -1.5
    endloop
  endfacet
  facet normal 1 -0 0
    outer loop
      vertex 9.78824 -9.11384 1.5
      vertex 9.78824 -8.38615 -1.5
      vertex 9.78824 -8.38615 1.5
    endloop
  endfacet
  facet normal 1 0 0
    outer loop
      vertex 9.78824 -8.38615 -1.5
      vertex 9.78824 -9.11384 1.5
      vertex 9.78824 -9.11384 -1.5
    endloop
  endfacet
  facet normal -0.500004 -0.866023 0
    outer loop
      vertex 12.0408 -7.08565 -1.5
      vertex 12.671 -7.4495 1.5
      vertex 12.0408 -7.08565 1.5
    endloop
  endfacet
  facet normal -0.500004 -0.866023 -0
    outer loop
      vertex 12.671 -7.4495 1.5
      vertex 12.0408 -7.08565 -1.5
      vertex 12.671 -7.4495 -1.5
    endloop
  endfacet
  facet normal 0.913553 -0.40672 0
    outer loop
      vertex 9.78824 -8.38615 1.5
      vertex 10.0842 -7.72138 -1.5
      vertex 10.0842 -7.72138 1.5
    endloop
  endfacet
  facet normal 0.913553 -0.40672 0
    outer loop
      vertex 10.0842 -7.72138 -1.5
      vertex 9.78824 -8.38615 1.5
      vertex 9.78824 -8.38615 -1.5
    endloop
  endfacet
  facet normal -0.978146 0.207917 0
    outer loop
      vertex 13.0987 -9.46179 -1.5
      vertex 13.25 -8.75 1.5
      vertex 13.25 -8.75 -1.5
    endloop
  endfacet
  facet normal -0.978146 0.207917 0
    outer loop
      vertex 13.25 -8.75 1.5
      vertex 13.0987 -9.46179 -1.5
      vertex 13.0987 -9.46179 1.5
    endloop
  endfacet
  facet normal -0.809032 0.587765 0
    outer loop
      vertex 12.671 -10.0505 -1.5
      vertex 13.0987 -9.46179 1.5
      vertex 13.0987 -9.46179 -1.5
    endloop
  endfacet
  facet normal -0.809032 0.587765 0
    outer loop
      vertex 13.0987 -9.46179 1.5
      vertex 12.671 -10.0505 -1.5
      vertex 12.671 -10.0505 1.5
    endloop
  endfacet
  facet normal -0.104523 -0.994522 0
    outer loop
      vertex 11.3171 -7.00959 -1.5
      vertex 12.0408 -7.08565 1.5
      vertex 11.3171 -7.00959 1.5
    endloop
  endfacet
  facet normal -0.104523 -0.994522 -0
    outer loop
      vertex 12.0408 -7.08565 1.5
      vertex 11.3171 -7.00959 -1.5
      vertex 12.0408 -7.08565 -1.5
    endloop
  endfacet
  facet normal 0.669117 -0.743157 0
    outer loop
      vertex 10.0842 -7.72138 -1.5
      vertex 10.625 -7.23446 1.5
      vertex 10.0842 -7.72138 1.5
    endloop
  endfacet
  facet normal 0.669117 -0.743157 0
    outer loop
      vertex 10.625 -7.23446 1.5
      vertex 10.0842 -7.72138 -1.5
      vertex 10.625 -7.23446 -1.5
    endloop
  endfacet
  facet normal 0.669086 0.743185 -0
    outer loop
      vertex 10.625 -10.2655 -1.5
      vertex 10.0842 -9.77862 1.5
      vertex 10.625 -10.2655 1.5
    endloop
  endfacet
  facet normal 0.669086 0.743185 0
    outer loop
      vertex 10.0842 -9.77862 1.5
      vertex 10.625 -10.2655 -1.5
      vertex 10.0842 -9.77862 -1.5
    endloop
  endfacet
  facet normal -0.104577 0.994517 0
    outer loop
      vertex 12.0408 -10.4143 -1.5
      vertex 11.3171 -10.4904 1.5
      vertex 12.0408 -10.4143 1.5
    endloop
  endfacet
  facet normal -0.104577 0.994517 0
    outer loop
      vertex 11.3171 -10.4904 1.5
      vertex 12.0408 -10.4143 -1.5
      vertex 11.3171 -10.4904 -1.5
    endloop
  endfacet
  facet normal 0.309046 0.951047 -0
    outer loop
      vertex 11.3171 -10.4904 -1.5
      vertex 10.625 -10.2655 1.5
      vertex 11.3171 -10.4904 1.5
    endloop
  endfacet
  facet normal 0.309046 0.951047 0
    outer loop
      vertex 10.625 -10.2655 1.5
      vertex 11.3171 -10.4904 -1.5
      vertex 10.625 -10.2655 -1.5
    endloop
  endfacet
  facet normal -0.104577 0.994517 0
    outer loop
      vertex -10.9592 -10.4143 -1.5
      vertex -11.6829 -10.4904 1.5
      vertex -10.9592 -10.4143 1.5
    endloop
  endfacet
  facet normal -0.104577 0.994517 0
    outer loop
      vertex -11.6829 -10.4904 1.5
      vertex -10.9592 -10.4143 -1.5
      vertex -11.6829 -10.4904 -1.5
    endloop
  endfacet
  facet normal -0.809025 -0.587774 0
    outer loop
      vertex -9.90129 -8.03821 -1.5
      vertex -10.329 -7.4495 1.5
      vertex -10.329 -7.4495 -1.5
    endloop
  endfacet
  facet normal -0.809025 -0.587774 0
    outer loop
      vertex -10.329 -7.4495 1.5
      vertex -9.90129 -8.03821 -1.5
      vertex -9.90129 -8.03821 1.5
    endloop
  endfacet
  facet normal -0.978149 -0.207904 0
    outer loop
      vertex -9.75 -8.75 -1.5
      vertex -9.90129 -8.03821 1.5
      vertex -9.90129 -8.03821 -1.5
    endloop
  endfacet
  facet normal -0.978149 -0.207904 0
    outer loop
      vertex -9.90129 -8.03821 1.5
      vertex -9.75 -8.75 -1.5
      vertex -9.75 -8.75 1.5
    endloop
  endfacet
  facet normal -0.500004 -0.866023 0
    outer loop
      vertex -10.9592 -7.08565 -1.5
      vertex -10.329 -7.4495 1.5
      vertex -10.9592 -7.08565 1.5
    endloop
  endfacet
  facet normal -0.500004 -0.866023 -0
    outer loop
      vertex -10.329 -7.4495 1.5
      vertex -10.9592 -7.08565 -1.5
      vertex -10.329 -7.4495 -1.5
    endloop
  endfacet
  facet normal -0.809025 0.587774 0
    outer loop
      vertex -10.329 -10.0505 -1.5
      vertex -9.90129 -9.46179 1.5
      vertex -9.90129 -9.46179 -1.5
    endloop
  endfacet
  facet normal -0.809025 0.587774 0
    outer loop
      vertex -9.90129 -9.46179 1.5
      vertex -10.329 -10.0505 -1.5
      vertex -10.329 -10.0505 1.5
    endloop
  endfacet
  facet normal 0.309008 -0.951059 0
    outer loop
      vertex -12.375 -7.23446 -1.5
      vertex -11.6829 -7.00959 1.5
      vertex -12.375 -7.23446 1.5
    endloop
  endfacet
  facet normal 0.309008 -0.951059 0
    outer loop
      vertex -11.6829 -7.00959 1.5
      vertex -12.375 -7.23446 -1.5
      vertex -11.6829 -7.00959 -1.5
    endloop
  endfacet
  facet normal 1 -0 0
    outer loop
      vertex -13.2118 -9.11384 1.5
      vertex -13.2118 -8.38615 -1.5
      vertex -13.2118 -8.38615 1.5
    endloop
  endfacet
  facet normal 1 0 0
    outer loop
      vertex -13.2118 -8.38615 -1.5
      vertex -13.2118 -9.11384 1.5
      vertex -13.2118 -9.11384 -1.5
    endloop
  endfacet
  facet normal 0.669117 -0.743157 0
    outer loop
      vertex -12.9158 -7.72138 -1.5
      vertex -12.375 -7.23446 1.5
      vertex -12.9158 -7.72138 1.5
    endloop
  endfacet
  facet normal 0.669117 -0.743157 0
    outer loop
      vertex -12.375 -7.23446 1.5
      vertex -12.9158 -7.72138 -1.5
      vertex -12.375 -7.23446 -1.5
    endloop
  endfacet
  facet normal 0.309046 0.951047 -0
    outer loop
      vertex -11.6829 -10.4904 -1.5
      vertex -12.375 -10.2655 1.5
      vertex -11.6829 -10.4904 1.5
    endloop
  endfacet
  facet normal 0.309046 0.951047 0
    outer loop
      vertex -12.375 -10.2655 1.5
      vertex -11.6829 -10.4904 -1.5
      vertex -12.375 -10.2655 -1.5
    endloop
  endfacet
  facet normal 0.913533 -0.406766 0
    outer loop
      vertex -13.2118 -8.38615 1.5
      vertex -12.9158 -7.72138 -1.5
      vertex -12.9158 -7.72138 1.5
    endloop
  endfacet
  facet normal 0.913533 -0.406766 0
    outer loop
      vertex -12.9158 -7.72138 -1.5
      vertex -13.2118 -8.38615 1.5
      vertex -13.2118 -8.38615 -1.5
    endloop
  endfacet
  facet normal -0.104523 -0.994522 0
    outer loop
      vertex -11.6829 -7.00959 -1.5
      vertex -10.9592 -7.08565 1.5
      vertex -11.6829 -7.00959 1.5
    endloop
  endfacet
  facet normal -0.104523 -0.994522 -0
    outer loop
      vertex -10.9592 -7.08565 1.5
      vertex -11.6829 -7.00959 -1.5
      vertex -10.9592 -7.08565 -1.5
    endloop
  endfacet
  facet normal -0.978149 0.207904 0
    outer loop
      vertex -9.90129 -9.46179 -1.5
      vertex -9.75 -8.75 1.5
      vertex -9.75 -8.75 -1.5
    endloop
  endfacet
  facet normal -0.978149 0.207904 0
    outer loop
      vertex -9.75 -8.75 1.5
      vertex -9.90129 -9.46179 -1.5
      vertex -9.90129 -9.46179 1.5
    endloop
  endfacet
  facet normal -0.499952 0.866053 0
    outer loop
      vertex -10.329 -10.0505 -1.5
      vertex -10.9592 -10.4143 1.5
      vertex -10.329 -10.0505 1.5
    endloop
  endfacet
  facet normal -0.499952 0.866053 0
    outer loop
      vertex -10.9592 -10.4143 1.5
      vertex -10.329 -10.0505 -1.5
      vertex -10.9592 -10.4143 -1.5
    endloop
  endfacet
  facet normal 0.669086 0.743185 -0
    outer loop
      vertex -12.375 -10.2655 -1.5
      vertex -12.9158 -9.77862 1.5
      vertex -12.375 -10.2655 1.5
    endloop
  endfacet
  facet normal 0.669086 0.743185 0
    outer loop
      vertex -12.9158 -9.77862 1.5
      vertex -12.375 -10.2655 -1.5
      vertex -12.9158 -9.77862 -1.5
    endloop
  endfacet
  facet normal 0.913535 0.406761 0
    outer loop
      vertex -12.9158 -9.77862 1.5
      vertex -13.2118 -9.11384 -1.5
      vertex -13.2118 -9.11384 1.5
    endloop
  endfacet
  facet normal 0.913535 0.406761 0
    outer loop
      vertex -13.2118 -9.11384 -1.5
      vertex -12.9158 -9.77862 1.5
      vertex -12.9158 -9.77862 -1.5
    endloop
  endfacet
endsolid OpenSCAD_Model
