solid OpenSCAD_Model
  facet normal 1 -0 0
    outer loop
      vertex 133.75 -42.75 7.5
      vertex 133.75 42.75 -7.5
      vertex 133.75 42.75 7.5
    endloop
  endfacet
  facet normal 1 0 0
    outer loop
      vertex 133.75 42.75 -7.5
      vertex 133.75 -42.75 7.5
      vertex 133.75 -42.75 -7.5
    endloop
  endfacet
  facet normal 0 0 1
    outer loop
      vertex -102.5 -37.75 7.5
      vertex -128.75 -37.75 7.5
      vertex -102.5 -39.75 7.5
    endloop
  endfacet
  facet normal 0 0 1
    outer loop
      vertex -37.5 -37.75 7.5
      vertex -92.5 -37.75 7.5
      vertex -37.5 -39.75 7.5
    endloop
  endfacet
  facet normal 0 0 1
    outer loop
      vertex 27.5 -37.75 7.5
      vertex -27.5 -37.75 7.5
      vertex 27.5 -39.75 7.5
    endloop
  endfacet
  facet normal 0 0 1
    outer loop
      vertex 92.5 -37.75 7.5
      vertex 37.5 -37.75 7.5
      vertex 92.5 -39.75 7.5
    endloop
  endfacet
  facet normal 0 0 1
    outer loop
      vertex 133.75 42.75 7.5
      vertex 128.75 37.75 7.5
      vertex 133.75 -42.75 7.5
    endloop
  endfacet
  facet normal 0 0 1
    outer loop
      vertex 133.75 42.75 7.5
      vertex -128.75 37.75 7.5
      vertex 128.75 37.75 7.5
    endloop
  endfacet
  facet normal 0 0 1
    outer loop
      vertex -128.75 37.75 7.5
      vertex -133.75 42.75 7.5
      vertex -128.75 -37.75 7.5
    endloop
  endfacet
  facet normal -0 0 1
    outer loop
      vertex -133.75 42.75 7.5
      vertex -128.75 37.75 7.5
      vertex 133.75 42.75 7.5
    endloop
  endfacet
  facet normal -0 0 1
    outer loop
      vertex 128.75 -37.75 7.5
      vertex 133.75 -42.75 7.5
      vertex 128.75 37.75 7.5
    endloop
  endfacet
  facet normal 0 0 1
    outer loop
      vertex 102.5 -39.75 7.5
      vertex 128.75 -37.75 7.5
      vertex 102.5 -37.75 7.5
    endloop
  endfacet
  facet normal 0 0 1
    outer loop
      vertex 128.75 -37.75 7.5
      vertex 102.5 -39.75 7.5
      vertex 133.75 -42.75 7.5
    endloop
  endfacet
  facet normal -0 0 1
    outer loop
      vertex 92.5 -39.75 7.5
      vertex 133.75 -42.75 7.5
      vertex 102.5 -39.75 7.5
    endloop
  endfacet
  facet normal 0 0 1
    outer loop
      vertex 37.5 -39.75 7.5
      vertex 92.5 -39.75 7.5
      vertex 37.5 -37.75 7.5
    endloop
  endfacet
  facet normal 0 0 1
    outer loop
      vertex 92.5 -39.75 7.5
      vertex 37.5 -39.75 7.5
      vertex 133.75 -42.75 7.5
    endloop
  endfacet
  facet normal -0 0 1
    outer loop
      vertex 27.5 -39.75 7.5
      vertex 133.75 -42.75 7.5
      vertex 37.5 -39.75 7.5
    endloop
  endfacet
  facet normal 0 0 1
    outer loop
      vertex -27.5 -39.75 7.5
      vertex 27.5 -39.75 7.5
      vertex -27.5 -37.75 7.5
    endloop
  endfacet
  facet normal -0 0 1
    outer loop
      vertex -27.5 -39.75 7.5
      vertex 133.75 -42.75 7.5
      vertex 27.5 -39.75 7.5
    endloop
  endfacet
  facet normal 0 0 1
    outer loop
      vertex -133.75 -42.75 7.5
      vertex -27.5 -39.75 7.5
      vertex -37.5 -39.75 7.5
    endloop
  endfacet
  facet normal 0 0 1
    outer loop
      vertex -92.5 -39.75 7.5
      vertex -37.5 -39.75 7.5
      vertex -92.5 -37.75 7.5
    endloop
  endfacet
  facet normal 0 0 1
    outer loop
      vertex -133.75 -42.75 7.5
      vertex -37.5 -39.75 7.5
      vertex -92.5 -39.75 7.5
    endloop
  endfacet
  facet normal 0 0 1
    outer loop
      vertex -133.75 -42.75 7.5
      vertex -92.5 -39.75 7.5
      vertex -102.5 -39.75 7.5
    endloop
  endfacet
  facet normal 0 0 1
    outer loop
      vertex -27.5 -39.75 7.5
      vertex -133.75 -42.75 7.5
      vertex 133.75 -42.75 7.5
    endloop
  endfacet
  facet normal 0 0 1
    outer loop
      vertex -128.75 -37.75 7.5
      vertex -133.75 -42.75 7.5
      vertex -102.5 -39.75 7.5
    endloop
  endfacet
  facet normal 0 0 1
    outer loop
      vertex -133.75 -42.75 7.5
      vertex -128.75 -37.75 7.5
      vertex -133.75 42.75 7.5
    endloop
  endfacet
  facet normal 0 0 -1
    outer loop
      vertex 133.75 -42.75 -7.5
      vertex 128.75 -37.75 -7.5
      vertex 133.75 42.75 -7.5
    endloop
  endfacet
  facet normal 0 0 -1
    outer loop
      vertex 133.75 -42.75 -7.5
      vertex 102.5 -39.75 -7.5
      vertex 128.75 -37.75 -7.5
    endloop
  endfacet
  facet normal 0 0 -1
    outer loop
      vertex 133.75 -42.75 -7.5
      vertex 92.5 -39.75 -7.5
      vertex 102.5 -39.75 -7.5
    endloop
  endfacet
  facet normal 0 0 -1
    outer loop
      vertex 92.5 -39.75 -7.5
      vertex 37.5 -39.75 -7.5
      vertex 92.5 -37.75 -7.5
    endloop
  endfacet
  facet normal 0 0 -1
    outer loop
      vertex 133.75 -42.75 -7.5
      vertex 37.5 -39.75 -7.5
      vertex 92.5 -39.75 -7.5
    endloop
  endfacet
  facet normal 0 0 -1
    outer loop
      vertex 133.75 -42.75 -7.5
      vertex 27.5 -39.75 -7.5
      vertex 37.5 -39.75 -7.5
    endloop
  endfacet
  facet normal 0 0 -1
    outer loop
      vertex 27.5 -39.75 -7.5
      vertex -27.5 -39.75 -7.5
      vertex 27.5 -37.75 -7.5
    endloop
  endfacet
  facet normal 0 0 -1
    outer loop
      vertex 133.75 -42.75 -7.5
      vertex -27.5 -39.75 -7.5
      vertex 27.5 -39.75 -7.5
    endloop
  endfacet
  facet normal 0 0 -1
    outer loop
      vertex -133.75 -42.75 -7.5
      vertex -27.5 -39.75 -7.5
      vertex 133.75 -42.75 -7.5
    endloop
  endfacet
  facet normal 0 0 -1
    outer loop
      vertex -37.5 -39.75 -7.5
      vertex -92.5 -39.75 -7.5
      vertex -37.5 -37.75 -7.5
    endloop
  endfacet
  facet normal -0 0 -1
    outer loop
      vertex -27.5 -39.75 -7.5
      vertex -133.75 -42.75 -7.5
      vertex -37.5 -39.75 -7.5
    endloop
  endfacet
  facet normal -0 0 -1
    outer loop
      vertex -37.5 -39.75 -7.5
      vertex -133.75 -42.75 -7.5
      vertex -92.5 -39.75 -7.5
    endloop
  endfacet
  facet normal 0 0 -1
    outer loop
      vertex -102.5 -39.75 -7.5
      vertex -128.75 -37.75 -7.5
      vertex -102.5 -37.75 -7.5
    endloop
  endfacet
  facet normal -0 0 -1
    outer loop
      vertex -128.75 -37.75 -7.5
      vertex -133.75 -42.75 -7.5
      vertex -128.75 37.75 -7.5
    endloop
  endfacet
  facet normal -0 0 -1
    outer loop
      vertex -102.5 -39.75 -7.5
      vertex -133.75 -42.75 -7.5
      vertex -128.75 -37.75 -7.5
    endloop
  endfacet
  facet normal -0 0 -1
    outer loop
      vertex -92.5 -39.75 -7.5
      vertex -133.75 -42.75 -7.5
      vertex -102.5 -39.75 -7.5
    endloop
  endfacet
  facet normal 0 0 -1
    outer loop
      vertex 128.75 37.75 -7.5
      vertex 133.75 42.75 -7.5
      vertex 128.75 -37.75 -7.5
    endloop
  endfacet
  facet normal 0 0 -1
    outer loop
      vertex -128.75 37.75 -7.5
      vertex 133.75 42.75 -7.5
      vertex 128.75 37.75 -7.5
    endloop
  endfacet
  facet normal 0 0 -1
    outer loop
      vertex -128.75 37.75 -7.5
      vertex -133.75 42.75 -7.5
      vertex 133.75 42.75 -7.5
    endloop
  endfacet
  facet normal 0 0 -1
    outer loop
      vertex -133.75 42.75 -7.5
      vertex -128.75 37.75 -7.5
      vertex -133.75 -42.75 -7.5
    endloop
  endfacet
  facet normal -0 0 -1
    outer loop
      vertex 128.75 -37.75 -7.5
      vertex 102.5 -39.75 -7.5
      vertex 102.5 -37.75 -7.5
    endloop
  endfacet
  facet normal -0 0 -1
    outer loop
      vertex 92.5 -37.75 -7.5
      vertex 37.5 -39.75 -7.5
      vertex 37.5 -37.75 -7.5
    endloop
  endfacet
  facet normal -0 0 -1
    outer loop
      vertex 27.5 -37.75 -7.5
      vertex -27.5 -39.75 -7.5
      vertex -27.5 -37.75 -7.5
    endloop
  endfacet
  facet normal -0 0 -1
    outer loop
      vertex -37.5 -37.75 -7.5
      vertex -92.5 -39.75 -7.5
      vertex -92.5 -37.75 -7.5
    endloop
  endfacet
  facet normal -1 0 0
    outer loop
      vertex -133.75 -42.75 -7.5
      vertex -133.75 42.75 7.5
      vertex -133.75 42.75 -7.5
    endloop
  endfacet
  facet normal -1 -0 0
    outer loop
      vertex -133.75 42.75 7.5
      vertex -133.75 -42.75 -7.5
      vertex -133.75 -42.75 7.5
    endloop
  endfacet
  facet normal 0 1 -0
    outer loop
      vertex 133.75 42.75 -7.5
      vertex -133.75 42.75 7.5
      vertex 133.75 42.75 7.5
    endloop
  endfacet
  facet normal 0 1 0
    outer loop
      vertex -133.75 42.75 7.5
      vertex 133.75 42.75 -7.5
      vertex -133.75 42.75 -7.5
    endloop
  endfacet
  facet normal 0 -1 0
    outer loop
      vertex -133.75 -42.75 -7.5
      vertex 133.75 -42.75 7.5
      vertex -133.75 -42.75 7.5
    endloop
  endfacet
  facet normal 0 -1 -0
    outer loop
      vertex 133.75 -42.75 7.5
      vertex -133.75 -42.75 -7.5
      vertex 133.75 -42.75 -7.5
    endloop
  endfacet
  facet normal -1 0 0
    outer loop
      vertex 128.75 -37.75 -7.5
      vertex 128.75 37.75 7.5
      vertex 128.75 37.75 -7.5
    endloop
  endfacet
  facet normal -1 -0 0
    outer loop
      vertex 128.75 37.75 7.5
      vertex 128.75 -37.75 -7.5
      vertex 128.75 -37.75 7.5
    endloop
  endfacet
  facet normal 1 -0 0
    outer loop
      vertex -128.75 -37.75 7.5
      vertex -128.75 37.75 -7.5
      vertex -128.75 37.75 7.5
    endloop
  endfacet
  facet normal 1 0 0
    outer loop
      vertex -128.75 37.75 -7.5
      vertex -128.75 -37.75 7.5
      vertex -128.75 -37.75 -7.5
    endloop
  endfacet
  facet normal 0 -1 0
    outer loop
      vertex -128.75 37.75 -7.5
      vertex 128.75 37.75 7.5
      vertex -128.75 37.75 7.5
    endloop
  endfacet
  facet normal 0 -1 -0
    outer loop
      vertex 128.75 37.75 7.5
      vertex -128.75 37.75 -7.5
      vertex 128.75 37.75 -7.5
    endloop
  endfacet
  facet normal 0 1 -0
    outer loop
      vertex -102.5 -37.75 -7.5
      vertex -128.75 -37.75 7.5
      vertex -102.5 -37.75 7.5
    endloop
  endfacet
  facet normal 0 1 0
    outer loop
      vertex -128.75 -37.75 7.5
      vertex -102.5 -37.75 -7.5
      vertex -128.75 -37.75 -7.5
    endloop
  endfacet
  facet normal 0 1 -0
    outer loop
      vertex 128.75 -37.75 -7.5
      vertex 102.5 -37.75 7.5
      vertex 128.75 -37.75 7.5
    endloop
  endfacet
  facet normal 0 1 0
    outer loop
      vertex 102.5 -37.75 7.5
      vertex 128.75 -37.75 -7.5
      vertex 102.5 -37.75 -7.5
    endloop
  endfacet
  facet normal 0 1 -0
    outer loop
      vertex -37.5 -37.75 -7.5
      vertex -92.5 -37.75 7.5
      vertex -37.5 -37.75 7.5
    endloop
  endfacet
  facet normal 0 1 0
    outer loop
      vertex -92.5 -37.75 7.5
      vertex -37.5 -37.75 -7.5
      vertex -92.5 -37.75 -7.5
    endloop
  endfacet
  facet normal 0 1 -0
    outer loop
      vertex 27.5 -37.75 -7.5
      vertex -27.5 -37.75 7.5
      vertex 27.5 -37.75 7.5
    endloop
  endfacet
  facet normal 0 1 0
    outer loop
      vertex -27.5 -37.75 7.5
      vertex 27.5 -37.75 -7.5
      vertex -27.5 -37.75 -7.5
    endloop
  endfacet
  facet normal 0 1 -0
    outer loop
      vertex 92.5 -37.75 -7.5
      vertex 37.5 -37.75 7.5
      vertex 92.5 -37.75 7.5
    endloop
  endfacet
  facet normal 0 1 0
    outer loop
      vertex 37.5 -37.75 7.5
      vertex 92.5 -37.75 -7.5
      vertex 37.5 -37.75 -7.5
    endloop
  endfacet
  facet normal -1 0 0
    outer loop
      vertex -92.5 -39.75 -7.5
      vertex -92.5 -37.75 7.5
      vertex -92.5 -37.75 -7.5
    endloop
  endfacet
  facet normal -1 -0 0
    outer loop
      vertex -92.5 -37.75 7.5
      vertex -92.5 -39.75 -7.5
      vertex -92.5 -39.75 7.5
    endloop
  endfacet
  facet normal 1 -0 0
    outer loop
      vertex -102.5 -39.75 7.5
      vertex -102.5 -37.75 -7.5
      vertex -102.5 -37.75 7.5
    endloop
  endfacet
  facet normal 1 0 0
    outer loop
      vertex -102.5 -37.75 -7.5
      vertex -102.5 -39.75 7.5
      vertex -102.5 -39.75 -7.5
    endloop
  endfacet
  facet normal 0 1 -0
    outer loop
      vertex -92.5 -39.75 -7.5
      vertex -102.5 -39.75 7.5
      vertex -92.5 -39.75 7.5
    endloop
  endfacet
  facet normal 0 1 0
    outer loop
      vertex -102.5 -39.75 7.5
      vertex -92.5 -39.75 -7.5
      vertex -102.5 -39.75 -7.5
    endloop
  endfacet
  facet normal -1 0 0
    outer loop
      vertex -27.5 -39.75 -7.5
      vertex -27.5 -37.75 7.5
      vertex -27.5 -37.75 -7.5
    endloop
  endfacet
  facet normal -1 -0 0
    outer loop
      vertex -27.5 -37.75 7.5
      vertex -27.5 -39.75 -7.5
      vertex -27.5 -39.75 7.5
    endloop
  endfacet
  facet normal 1 -0 0
    outer loop
      vertex -37.5 -39.75 7.5
      vertex -37.5 -37.75 -7.5
      vertex -37.5 -37.75 7.5
    endloop
  endfacet
  facet normal 1 0 0
    outer loop
      vertex -37.5 -37.75 -7.5
      vertex -37.5 -39.75 7.5
      vertex -37.5 -39.75 -7.5
    endloop
  endfacet
  facet normal 0 1 -0
    outer loop
      vertex -27.5 -39.75 -7.5
      vertex -37.5 -39.75 7.5
      vertex -27.5 -39.75 7.5
    endloop
  endfacet
  facet normal 0 1 0
    outer loop
      vertex -37.5 -39.75 7.5
      vertex -27.5 -39.75 -7.5
      vertex -37.5 -39.75 -7.5
    endloop
  endfacet
  facet normal -1 0 0
    outer loop
      vertex 37.5 -39.75 -7.5
      vertex 37.5 -37.75 7.5
      vertex 37.5 -37.75 -7.5
    endloop
  endfacet
  facet normal -1 -0 0
    outer loop
      vertex 37.5 -37.75 7.5
      vertex 37.5 -39.75 -7.5
      vertex 37.5 -39.75 7.5
    endloop
  endfacet
  facet normal 1 -0 0
    outer loop
      vertex 27.5 -39.75 7.5
      vertex 27.5 -37.75 -7.5
      vertex 27.5 -37.75 7.5
    endloop
  endfacet
  facet normal 1 0 0
    outer loop
      vertex 27.5 -37.75 -7.5
      vertex 27.5 -39.75 7.5
      vertex 27.5 -39.75 -7.5
    endloop
  endfacet
  facet normal 0 1 -0
    outer loop
      vertex 37.5 -39.75 -7.5
      vertex 27.5 -39.75 7.5
      vertex 37.5 -39.75 7.5
    endloop
  endfacet
  facet normal 0 1 0
    outer loop
      vertex 27.5 -39.75 7.5
      vertex 37.5 -39.75 -7.5
      vertex 27.5 -39.75 -7.5
    endloop
  endfacet
  facet normal -1 0 0
    outer loop
      vertex 102.5 -39.75 -7.5
      vertex 102.5 -37.75 7.5
      vertex 102.5 -37.75 -7.5
    endloop
  endfacet
  facet normal -1 -0 0
    outer loop
      vertex 102.5 -37.75 7.5
      vertex 102.5 -39.75 -7.5
      vertex 102.5 -39.75 7.5
    endloop
  endfacet
  facet normal 1 -0 0
    outer loop
      vertex 92.5 -39.75 7.5
      vertex 92.5 -37.75 -7.5
      vertex 92.5 -37.75 7.5
    endloop
  endfacet
  facet normal 1 0 0
    outer loop
      vertex 92.5 -37.75 -7.5
      vertex 92.5 -39.75 7.5
      vertex 92.5 -39.75 -7.5
    endloop
  endfacet
  facet normal 0 1 -0
    outer loop
      vertex 102.5 -39.75 -7.5
      vertex 92.5 -39.75 7.5
      vertex 102.5 -39.75 7.5
    endloop
  endfacet
  facet normal 0 1 0
    outer loop
      vertex 92.5 -39.75 7.5
      vertex 102.5 -39.75 -7.5
      vertex 92.5 -39.75 -7.5
    endloop
  endfacet
endsolid OpenSCAD_Model
